<?xml version="1.0" encoding="UTF-8" standalone="no"?>
<svg width="100px" height="79px" viewBox="0 0 100 79" version="1.1" xmlns="http://www.w3.org/2000/svg" xmlns:xlink="http://www.w3.org/1999/xlink" xmlns:sketch="http://www.bohemiancoding.com/sketch/ns">
  <path d="M57.1529673,69.7391042 L55.1705589,74.3377936 L64.4006562,78.288556 L66.3830646,73.6898666 C69.2248934,67.0975376 74.3436313,60.896431 81.1177262,55.2367865 C85.0470191,51.9539272 89.2789921,49.0631405 93.5101397,46.602805 C94.9880746,45.7434127 96.3560374,45.0014233 97.5762325,44.3804539 C98.2890858,44.0176758 98.7802276,43.7819861 99.0120143,43.6766434 L98.9229529,34.529758 C98.696522,34.4320926 98.2117968,34.210251 97.5062985,33.8661326 C96.2962718,33.2759223 94.9390916,32.5667967 93.4724263,31.7410338 C89.2722546,29.37625 85.0709659,26.568206 81.1705127,23.3448287 C74.3457254,17.7047497 69.2161495,11.4268414 66.4141216,4.62963636 L64.5056356,0 L55.2134243,3.80344172 L57.1219102,8.43307809 C59.240294,13.5718878 62.3244476,18.3525151 66.1996948,22.7897913 L0,22.7897913 L0,32.7998013 L74.054999,32.7998013 L76.9464992,32.7998013 C80.6940104,35.6989289 82.7630629,36.937953 86.6817932,39.1442795 C82.9749962,41.2997146 81.0339593,42.5652072 77.4718341,45.3123138 L74.054999,45.3123138 L0,45.3123138 L0,55.3223238 L66.5819528,55.3223238 C62.5676645,59.8092465 59.3636679,64.6108341 57.1529673,69.7391042 Z" fill="#444444"></path>
</svg>
