<?xml version="1.0" encoding="UTF-8" standalone="no"?>
<svg width="228px" height="221px" viewBox="0 0 228 221" version="1.1" xmlns="http://www.w3.org/2000/svg" xmlns:xlink="http://www.w3.org/1999/xlink" xmlns:sketch="http://www.bohemiancoding.com/sketch/ns">
    <!-- Generator: Sketch 3.3.3 (12072) - http://www.bohemiancoding.com/sketch -->
    <title>arrow-logo</title>
    <desc>Created with Sketch.</desc>
    <defs></defs>
    <g id="Page-1" stroke="none" stroke-width="1" fill="none" fill-rule="evenodd" sketch:type="MSPage">
        <g id="arrow-logo" sketch:type="MSArtboardGroup" fill="#189AE0">
            <path d="M113.975793,190 C158.145203,190 193.951585,154.18278 193.951585,110 C193.951585,65.81722 158.145203,30 113.975793,30 C69.806382,30 34,65.81722 34,110 C34,154.18278 69.806382,190 113.975793,190 Z M113.839127,145.524549 L111.430972,150.811171 L122.64335,155.352941 L125.051506,150.066319 C128.503654,142.487821 134.721706,135.359071 142.950624,128.852781 C147.723783,125.078828 152.864626,121.755599 158.004467,118.927214 C159.799807,117.939262 161.461557,117.086276 162.943805,116.372414 C163.809752,115.955367 164.406373,115.684419 164.687939,115.563318 L164.57975,105.04812 C164.304691,104.935844 163.715865,104.680817 162.858851,104.285221 C161.388956,103.606719 159.740304,102.791513 157.958654,101.842221 C152.856442,99.1236816 147.752873,95.895573 143.014747,92.1900001 C134.72425,85.7062029 128.493032,78.4891615 125.089233,70.6751402 L122.770875,65.3529412 L111.483043,69.7253523 L113.801401,75.0475513 C116.374734,80.9550926 120.121249,86.4508697 124.828755,91.5519327 L68.9312087,91.5519327 L68.9312087,103.059373 L134.371086,103.059373 L137.883573,103.059373 C142.43591,106.392191 144.949318,107.816565 149.709646,110.352943 C145.206767,112.830817 142.848867,114.285618 138.52173,117.443674 L134.371086,117.443674 L68.9312087,117.443674 L68.9312087,128.951114 L125.293108,128.951114 C120.4167,134.109251 116.524604,139.629124 113.839127,145.524549 Z" id="Oval-1" sketch:type="MSShapeGroup"></path>
        </g>
    </g>
</svg>