<?xml version="1.0" encoding="UTF-8" standalone="no"?>
<svg width="396px" height="126px" viewBox="0 0 396 126" version="1.1" xmlns="http://www.w3.org/2000/svg" xmlns:xlink="http://www.w3.org/1999/xlink" xmlns:sketch="http://www.bohemiancoding.com/sketch/ns">
  <path d="M147.144896,41.0227161 L147.144896,96.3155089 L131.323046,96.3155089 L131.323046,41.0227161 L147.144896,41.0227161 Z M139.233971,8.47767109 C141.795617,8.47767109 143.999353,9.39733156 145.845244,11.2366801 C147.691136,13.0760286 148.614068,15.2719526 148.614068,17.8245179 C148.614068,20.4521587 147.709971,22.6668513 145.901751,24.4686621 C144.09353,26.2704729 141.870959,27.1713648 139.233971,27.1713648 C136.596983,27.1713648 134.374412,26.2704729 132.566191,24.4686621 C130.757971,22.6668513 129.853874,20.4521587 129.853874,17.8245179 C129.853874,15.2719526 130.776806,13.0760286 132.622698,11.2366801 C134.46859,9.39733156 136.672325,8.47767109 139.233971,8.47767109 L139.233971,8.47767109 Z M174.946148,41.0227161 L174.946148,45.9776711 L175.172174,45.9776711 C178.33656,41.4731441 182.857043,39.2209143 188.73376,39.2209143 C195.815957,39.2209143 201.127525,42.1112758 204.668624,47.8920855 C206.326159,45.1893693 208.624072,43.0685196 211.56243,41.5294729 C214.500788,39.9904262 217.589785,39.2209143 220.829514,39.2209143 C232.582947,39.2209143 238.459576,46.7658839 238.459576,61.8560495 L238.459576,96.3155089 L222.637725,96.3155089 L222.637725,67.2614549 C222.637725,60.955117 221.959653,56.7509549 220.603487,54.6488423 C219.398007,52.771956 217.589814,51.8335269 215.178853,51.8335269 C213.521317,51.8335269 212.127502,52.2839729 210.997364,53.1848783 C209.867226,54.0857837 209.019635,55.0805185 208.454566,56.1691125 C207.889498,57.2577066 207.47512,58.759193 207.211421,60.673617 C206.947722,62.588041 206.797039,64.0519903 206.759368,65.0655089 C206.721697,66.0790275 206.702862,67.4491339 206.702862,69.1758693 L206.702862,96.3155089 L190.881011,96.3155089 L190.881011,68.2749684 L190.881011,67.1488423 L190.881011,63.2637071 C190.881011,62.325264 190.749164,61.0302319 190.485465,59.378572 C190.221766,57.7269121 189.845059,56.43188 189.355333,55.4934369 C188.865606,54.5549937 188.093357,53.7104076 187.038562,52.9596531 C185.983767,52.2088986 184.740634,51.8335269 183.309126,51.8335269 C181.35022,51.8335269 179.749216,52.3590472 178.506064,53.4101035 C177.262912,54.4611598 176.415322,56.0001835 175.963267,58.0272206 C175.511211,60.0542578 175.228681,61.7246615 175.115667,63.0384819 C175.002654,64.3523023 174.946148,66.1353175 174.946148,68.387581 L174.946148,69.1758693 L174.946148,96.3155089 L159.124297,96.3155089 L159.124297,41.0227161 L174.946148,41.0227161 Z M265.582748,41.0227161 L265.582748,46.0902837 C269.425216,41.5106812 274.548431,39.2209143 280.952545,39.2209143 C288.486797,39.2209143 294.58945,42.1675816 299.260686,48.0610044 C303.931923,53.9544273 306.267506,60.729885 306.267506,68.387581 C306.267506,76.4206542 303.950758,83.3837978 299.317193,89.2772206 C294.683628,95.1706435 288.449128,98.1173107 280.613506,98.1173107 C277.675147,98.1173107 274.849845,97.4979475 272.137514,96.2592026 C269.425183,95.0204577 267.315625,93.3125168 265.808774,91.1353287 L265.582748,91.1353287 L265.582748,125.820013 L249.760897,125.820013 L249.760897,41.0227161 L265.582748,41.0227161 Z M277.110096,84.1533468 C280.952564,84.1533468 284.098067,82.5580174 286.546699,79.3673107 C288.995331,76.1766041 290.219629,72.5918051 290.219629,68.6128062 C290.219629,64.6338073 288.995331,61.0677769 286.546699,57.914608 C284.098067,54.7614391 280.952564,53.1848783 277.110096,53.1848783 C273.267627,53.1848783 270.122124,54.7614391 267.673492,57.914608 C265.22486,61.0677769 264.000563,64.6338073 264.000563,68.6128062 C264.000563,72.5918051 265.22486,76.1766041 267.673492,79.3673107 C270.122124,82.5580174 273.267627,84.1533468 277.110096,84.1533468 L277.110096,84.1533468 Z M329.435215,0.820013428 L329.435215,96.3155089 L313.613365,96.3155089 L313.613365,0.820013428 L329.435215,0.820013428 Z M356.558387,87.869563 L332.938625,41.0227161 L350.907726,41.0227161 L364.130273,72.441635 L378.369938,41.0227161 L396,41.0227161 L355.654282,125.820013 L338.250246,125.820013 L356.558387,87.869563 Z M57.1529673,94.9148396 L55.1705589,99.513529 L64.4006562,103.464291 L66.3830646,98.865602 C69.2248934,92.273273 74.3436313,86.0721664 81.1177262,80.412522 C85.0470191,77.1296626 89.2789921,74.2388759 93.5101397,71.7785404 C94.9880746,70.9191482 96.3560374,70.1771588 97.5762325,69.5561893 C98.2890858,69.1934112 98.7802276,68.9577215 99.0120143,68.8523789 L98.9229529,59.7054935 C98.696522,59.607828 98.2117968,59.3859864 97.5062985,59.0418681 C96.2962718,58.4516577 94.9390916,57.7425322 93.4724263,56.9167692 C89.2722546,54.5519855 85.0709659,51.7439414 81.1705127,48.5205642 C74.3457254,42.8804851 69.2161495,36.6025768 66.4141216,29.8053718 L64.5056356,25.1757354 L55.2134243,28.9791772 L57.1219102,33.6088135 C59.240294,38.7476233 62.3244476,43.5282506 66.1996948,47.9655267 L0,47.9655267 L0,57.9755367 L74.054999,57.9755367 L76.9464992,57.9755367 C80.6940104,60.8746644 82.7630629,62.1136885 86.6817932,64.3200149 C82.9749962,66.47545 81.0339593,67.7409426 77.4718341,70.4880493 L74.054999,70.4880493 L0,70.4880493 L0,80.4980593 L66.5819528,80.4980593 C62.5676645,84.9849819 59.3636679,89.7865696 57.1529673,94.9148396 Z" id="Logo-Copy-5" fill="#000000" sketch:type="MSShapeGroup"></path>
</svg>
