<?xml version="1.0" encoding="UTF-8" standalone="no"?>
<svg width="80px" height="26px" viewBox="0 0 80 26" version="1.1" xmlns="http://www.w3.org/2000/svg" xmlns:xlink="http://www.w3.org/1999/xlink" xmlns:sketch="http://www.bohemiancoding.com/sketch/ns">
    <g stroke="none" stroke-width="1" fill="none" fill-rule="evenodd">
        <path d="M37.8261035,10.3007703 L37.8261035,18.6761204 L35.14231,18.6761204 L35.14231,10.3007703 L37.8261035,10.3007703 L37.8261035,10.3007703 Z M36.5800565,5.20273109 C37.025048,5.20273109 37.4078658,5.34604803 37.7285215,5.63268621 C38.0491771,5.91932438 38.2095025,6.26153013 38.2095025,6.65931373 C38.2095025,7.06879683 38.052449,7.41392742 37.7383374,7.69471584 C37.4242258,7.97550426 37.038136,8.11589636 36.5800565,8.11589636 C36.121977,8.11589636 35.7358873,7.97550426 35.4217756,7.69471584 C35.107664,7.41392742 34.9506105,7.06879683 34.9506105,6.65931373 C34.9506105,6.26153013 35.1109359,5.91932438 35.4315916,5.63268621 C35.7522472,5.34604803 36.135065,5.20273109 36.5800565,5.20273109 L36.5800565,5.20273109 L36.5800565,5.20273109 Z M42.419246,10.9708845 C42.9927088,10.2813745 43.7573147,9.93662465 44.7513172,9.93662465 C45.9492177,9.93662465 46.8476296,10.3790536 47.4465799,11.2639248 C47.7269395,10.8502188 48.1156142,10.5255794 48.6126155,10.2899968 C49.1096167,10.0544142 49.6320974,9.93662465 50.1800731,9.93662465 C52.1680782,9.93662465 53.1620658,11.0915366 53.1620658,13.4013952 L53.1620658,18.6761204 L50.4859186,18.6761204 L50.4859186,14.2288031 C50.4859186,13.263489 50.3712277,12.619956 50.1418425,12.2981847 C49.9379445,12.0108888 49.6321022,11.8672431 49.2243063,11.8672431 C48.9439466,11.8672431 48.7081931,11.936193 48.5170388,12.074095 C48.3258844,12.211997 48.1825208,12.3642615 48.0869437,12.5308931 C47.9913665,12.6975247 47.9212776,12.9273579 47.876675,13.2203997 C47.8320723,13.5134415 47.8065854,13.7375289 47.8002136,13.8926686 C47.7938418,14.0478084 47.7906559,14.2575312 47.7906559,14.5218434 L47.7906559,18.6761204 L45.1145087,18.6761204 L45.1145087,14.383942 L45.1145087,14.2115654 L45.1145087,13.616866 C45.1145087,13.4732181 45.0922076,13.2749869 45.047605,13.0221666 C45.0030023,12.7693462 44.9392851,12.5711151 44.8564516,12.4274671 C44.773618,12.2838192 44.6429979,12.154538 44.4645872,12.0396197 C44.2861765,11.9247014 44.0759098,11.8672431 43.833781,11.8672431 C43.5024468,11.8672431 43.2316489,11.9476847 43.0213792,12.1085704 C42.8111094,12.269456 42.6677458,12.5050351 42.5912841,12.8153146 C42.5148223,13.1255941 42.4670345,13.3812836 42.447919,13.5823906 C42.4288036,13.7834977 42.419246,14.0564247 42.419246,14.4011797 L42.419246,14.5218434 L42.419246,18.6761204 L39.7430987,18.6761204 L39.7430987,10.2124273 L42.419246,10.2124273 L42.419246,10.9708845 Z M57.9545541,10.213167 L57.9545541,10.9909423 C58.6063357,10.2880604 59.4753649,9.93662465 60.5616677,9.93662465 C61.8396709,9.93662465 62.874838,10.3888821 63.6672001,11.2934105 C64.4595621,12.197939 64.8557371,13.237843 64.8557371,14.4131539 C64.8557371,15.646078 64.462757,16.7147883 63.676785,17.6193167 C62.890813,18.5238452 61.8332812,18.9761026 60.5041578,18.9761026 C60.0057366,18.9761026 59.5264925,18.8810421 59.0664113,18.6909183 C58.6063302,18.5007945 58.2484946,18.238658 57.992894,17.904501 L57.9545541,17.904501 L57.9545541,23.2279412 L55.2707607,23.2279412 L55.2707607,10.213167 L57.9545541,10.213167 L57.9545541,10.213167 Z M59.7756996,16.8553922 C60.4218625,16.8553922 60.9508212,16.6115274 61.3625916,16.1237904 C61.7743621,15.6360535 61.9802442,15.0880749 61.9802442,14.4798383 C61.9802442,13.8716017 61.7743621,13.3264921 61.3625916,12.8444933 C60.9508212,12.3624944 60.4218625,12.1214986 59.7756996,12.1214986 C59.1295368,12.1214986 58.600578,12.3624944 58.1888076,12.8444933 C57.7770372,13.3264921 57.571155,13.8716017 57.571155,14.4798383 C57.571155,15.0880749 57.7770372,15.6360535 58.1888076,16.1237904 C58.600578,16.6115274 59.1295368,16.8553922 59.7756996,16.8553922 L59.7756996,16.8553922 L59.7756996,16.8553922 Z M68.6897277,4.11029412 L68.6897277,18.6761204 L66.0059343,18.6761204 L66.0059343,4.11029412 L68.6897277,4.11029412 L68.6897277,4.11029412 Z M73.2857068,17.4424743 L69.2648263,10.3007703 L72.3237737,10.3007703 L74.5746972,15.0905189 L76.9987687,10.3007703 L80,10.3007703 L73.1317975,23.2279412 L70.1690435,23.2279412 L73.2857068,17.4424743 L73.2857068,17.4424743 Z M13.2200743,26 C20.3976035,26 26.2161406,20.1797017 26.2161406,13 C26.2161406,5.82029825 20.3976035,0 13.2200743,0 C6.04254504,0 0.224007965,5.82029825 0.224007965,13 C0.224007965,20.1797017 6.04254504,26 13.2200743,26 L13.2200743,26 L13.2200743,26 Z M13.2966512,19.0417989 L12.8826007,19.9507636 L14.8104206,20.7316608 L15.2244711,19.8226961 C15.8180222,18.5196739 16.8871339,17.2939796 18.3019874,16.1753094 C19.1226688,15.5264281 20.0065687,14.9550429 20.8902962,14.4687395 C21.1989812,14.2988743 21.4846972,14.1522147 21.73955,14.0294755 C21.8884382,13.9577697 21.9910193,13.9111839 22.0394308,13.8903622 L22.0208292,12.0824131 C21.9735363,12.0631088 21.8722955,12.0192602 21.7249434,11.9512427 C21.4722144,11.8345833 21.1887505,11.6944194 20.8824193,11.5312013 C20.0051615,11.0637844 19.1276704,10.5087539 18.3130125,9.87162974 C16.8875713,8.7568267 15.816196,7.51595204 15.2309578,6.17243456 L14.8323469,5.25735294 L12.8915536,6.00913112 L13.2901645,6.92421274 C13.7326152,7.93993622 14.3767788,8.8848623 15.1861721,9.76192251 L5.57532938,9.76192251 L5.57532938,11.7404745 L16.8268495,11.7404745 L17.4307751,11.7404745 C18.2134892,12.3135083 18.6456363,12.5584106 19.4641116,12.9945072 C18.6899012,13.4205448 18.2844917,13.6706787 17.5404978,14.2136645 L16.8268495,14.2136645 L5.57532938,14.2136645 L5.57532938,16.1922164 L15.2660114,16.1922164 C14.4275776,17.0790896 13.7583833,18.0281587 13.2966512,19.0417989 L13.2966512,19.0417989 L13.2966512,19.0417989 Z" fill="#189AE0"></path>
    </g>
</svg>