<?xml version="1.0" encoding="UTF-8" standalone="no"?>
<svg width="23px" height="24px" viewBox="0 0 23 24" version="1.1" xmlns="http://www.w3.org/2000/svg" xmlns:xlink="http://www.w3.org/1999/xlink" xmlns:sketch="http://www.bohemiancoding.com/sketch/ns">
    <g id="Page-16-Copy-108" stroke="none" stroke-width="1" fill="none" fill-rule="evenodd" sketch:type="MSPage">
        <g id="Group" sketch:type="MSLayerGroup" transform="translate(-113.000000, 0.000000)" fill="#CD7777">
            <g id="Group-Copy-4" sketch:type="MSShapeGroup">
                <path d="M136,6.2224963 C136,5.82056213 135.770925,5.45316136 135.408155,5.27376099 L124.97724,0.111550232 C124.67678,-0.0371834108 124.323287,-0.0371834108 124.02276,0.111550232 L113.59171,5.27376099 C113.229142,5.45316136 113,5.79956208 113,6.23522966 L113,17.7159202 C113,18.1159877 113.227193,18.4819885 113.587207,18.6623222 L124.018189,23.8861998 C124.170032,23.9623333 124.335117,24 124.499866,24 C124.759457,24 125.025098,23.8638664 125.025031,23.8645331 L135.412793,18.6622555 C135.772874,18.4819218 136,18.1159211 136,17.7158536 C136,17.7159869 136,6.23276298 136,6.2224963 L136,6.2224963 Z M124.5,2.24522134 L132.536584,6.2224963 L124.5,10.1997046 L116.463416,6.2224963 L124.5,2.24522134 L124.5,2.24522134 Z M115.138034,7.9364332 L123.430983,12.0405084 L123.430983,21.2167275 L115.138034,17.0635855 L115.138034,7.9364332 L115.138034,7.9364332 Z M133.861966,17.0635855 L125.569017,21.2167275 L125.569017,12.0405084 L133.862033,7.9364332 L133.862033,17.0635855 L133.861966,17.0635855 Z" id="Shape-Copy"></path>
            </g>
        </g>
    </g>
</svg>