<?xml version="1.0" encoding="UTF-8" standalone="no"?>
<svg width="11px" height="11px" viewBox="0 0 11 11" version="1.1" xmlns="http://www.w3.org/2000/svg" xmlns:xlink="http://www.w3.org/1999/xlink" xmlns:sketch="http://www.bohemiancoding.com/sketch/ns">
    <!-- Generator: Sketch 3.3.3 (12072) - http://www.bohemiancoding.com/sketch -->
    <title>Rectangle 102 Copy</title>
    <desc>Created with Sketch.</desc>
    <defs></defs>
    <g id="base-copy-110" stroke="none" stroke-width="1" fill="none" fill-rule="evenodd" sketch:type="MSPage">
        <g id="Group-Copy-8" sketch:type="MSLayerGroup" transform="translate(-12.000000, -153.000000)" fill="#AAAAAA">
            <path d="M21.1819805,154 L15.4142136,159.767767 L16.1213203,160.474874 L22,154.596194 L22,158 L23,158 L23,153 L22.5,153 L18,153 L18,154 L21.1819805,154 L21.1819805,154 Z M12,155 L18,155 L18,156 L12,156 L12,155 Z M13,163 L21,163 L21,164 L13,164 L13,163 Z M12,156 L13,156 L13,164 L12,164 L12,156 Z M20,158 L21,158 L21,163 L20,163 L20,158 Z" id="Rectangle-102-Copy" sketch:type="MSShapeGroup"></path>
        </g>
    </g>
</svg>