<?xml version="1.0" encoding="UTF-8" standalone="no"?>
<svg width="11px" height="11px" viewBox="0 0 11 11" version="1.1" xmlns="http://www.w3.org/2000/svg" xmlns:xlink="http://www.w3.org/1999/xlink" xmlns:sketch="http://www.bohemiancoding.com/sketch/ns">
    <!-- Generator: Sketch 3.3.3 (12072) - http://www.bohemiancoding.com/sketch -->
    <title>Rectangle 92</title>
    <desc>Created with Sketch.</desc>
    <defs></defs>
    <g id="base-copy-110" stroke="none" stroke-width="1" fill="none" fill-rule="evenodd" sketch:type="MSPage">
        <g id="Group-Copy-8" sketch:type="MSLayerGroup" transform="translate(-12.000000, -57.000000)" fill="#AAAAAA">
            <path d="M15,64 L15,61 L12,61 L12,60 L15,60 L15,57 L16,57 L16,60 L16,60 L19,60 L19,57 L20,57 L20,60 L23,60 L23,61 L20,61 L20,64 L23,64 L23,65 L20,65 L20,68 L19,68 L19,65 L16,65 L16,68 L15,68 L15,65 L12,65 L12,64 L15,64 Z M16,64 L16,61 L19,61 L19,64 L16,64 Z" id="Rectangle-92" sketch:type="MSShapeGroup"></path>
        </g>
    </g>
</svg>