<?xml version="1.0" encoding="UTF-8" standalone="no"?>
<svg width="14px" height="7px" viewBox="0 0 14 7" version="1.1" xmlns="http://www.w3.org/2000/svg" xmlns:xlink="http://www.w3.org/1999/xlink" xmlns:sketch="http://www.bohemiancoding.com/sketch/ns">
    <!-- Generator: Sketch 3.3.3 (12072) - http://www.bohemiancoding.com/sketch -->
    <title>Rectangle 84</title>
    <desc>Created with Sketch.</desc>
    <defs></defs>
    <g id="base-copy-110" stroke="none" stroke-width="1" fill="none" fill-rule="evenodd" sketch:type="MSPage">
        <g id="Group-Copy-8" sketch:type="MSLayerGroup" transform="translate(-11.000000, -83.000000)" fill="#AAAAAA">
            <path d="M11,83 L15,83 L15,90 L11,90 L11,83 Z M12,84 L14,84 L14,86 L12,86 L12,84 Z M12,87 L14,87 L14,90 L12,90 L12,87 Z M16,83 L20,83 L20,90 L16,90 L16,83 Z M17,84 L19,84 L19,86 L17,86 L17,84 Z M17,87 L19,87 L19,89 L17,89 L17,87 Z M21,83 L25,83 L25,90 L21,90 L21,83 Z M22,84 L25,84 L25,89 L22,89 L22,84 Z" id="Rectangle-84" sketch:type="MSShapeGroup"></path>
        </g>
    </g>
</svg>