<?xml version="1.0" encoding="UTF-8" standalone="no"?>
<svg width="21px" height="14px" viewBox="0 0 21 14" version="1.1" xmlns="http://www.w3.org/2000/svg" xmlns:xlink="http://www.w3.org/1999/xlink" xmlns:sketch="http://www.bohemiancoding.com/sketch/ns">
    <g id="Page-16-Copy-108" stroke="none" stroke-width="1" fill="none" fill-rule="evenodd" sketch:type="MSPage">
        <path d="M17.2612979,10.3869662 C17.9967332,9.77030779 18.6617056,9.11232771 19.2478306,8.45324379 C19.6040579,8.05267452 19.8596771,7.7342023 20.004471,7.53791072 L20.656074,6.65455728 L20.004471,5.77120384 C19.8596771,5.57491227 19.6040579,5.25644004 19.2478306,4.85587077 C18.6617056,4.19678685 17.9967332,3.53880677 17.2612979,2.92214835 C15.0971573,1.10752852 12.7685262,0 10.328037,0 C7.88754779,0 5.55891663,1.10752852 3.3947761,2.92214835 C2.65934079,3.53880677 1.99436835,4.19678685 1.40824335,4.85587077 C1.05201608,5.25644004 0.796396836,5.57491227 0.651602955,5.77120384 L0,6.65455728 L0.651602955,7.53791072 C0.796396836,7.7342023 1.05201608,8.05267452 1.40824335,8.45324379 C1.99436835,9.11232771 2.65934079,9.77030779 3.3947761,10.3869662 C5.55891663,12.201586 7.88754779,13.3091146 10.328037,13.3091146 C12.7685262,13.3091146 15.0971573,12.201586 17.2612979,10.3869662 Z M10.4329922,11.2789105 C12.9246603,11.2789105 14.9445564,9.25901437 14.9445564,6.76734628 C14.9445564,4.27567818 12.9246603,2.25578209 10.4329922,2.25578209 C7.94132408,2.25578209 5.92142799,4.27567818 5.92142799,6.76734628 C5.92142799,9.25901437 7.94132408,11.2789105 10.4329922,11.2789105 Z M10.4329922,9.02312837 C11.6788262,9.02312837 12.6887743,8.01318033 12.6887743,6.76734628 C12.6887743,5.52151223 11.6788262,4.51156419 10.4329922,4.51156419 C9.18715813,4.51156419 8.17721009,5.52151223 8.17721009,6.76734628 C8.17721009,8.01318033 9.18715813,9.02312837 10.4329922,9.02312837 Z" id="Shape-Copy-2" fill="#CC7777" sketch:type="MSShapeGroup"></path>
    </g>
</svg>