<?xml version="1.0" encoding="UTF-8" standalone="no"?>
<svg width="267px" height="126px" viewBox="0 0 267 126" version="1.1" xmlns="http://www.w3.org/2000/svg" xmlns:xlink="http://www.w3.org/1999/xlink" xmlns:sketch="http://www.bohemiancoding.com/sketch/ns">
    <path d="M18.1448963,40.3469807 L18.1448963,95.6397735 L2.32304593,95.6397735 L2.32304593,40.3469807 L18.1448963,40.3469807 Z M10.2339711,7.80193564 C12.7956168,7.80193564 14.9993525,8.72159611 16.8452443,10.5609446 C18.6911361,12.4002932 19.6140681,14.5962172 19.6140681,17.1487825 C19.6140681,19.7764233 18.7099714,21.9911158 16.9017509,23.7929266 C15.0935304,25.5947374 12.8709594,26.4956293 10.2339711,26.4956293 C7.59698287,26.4956293 5.37441183,25.5947374 3.56619132,23.7929266 C1.7579708,21.9911158 0.85387411,19.7764233 0.85387411,17.1487825 C0.85387411,14.5962172 1.77680615,12.4002932 3.62269793,10.5609446 C5.4685897,8.72159611 7.67232539,7.80193564 10.2339711,7.80193564 L10.2339711,7.80193564 Z M45.9461477,40.3469807 L45.9461477,45.3019356 L46.1721741,45.3019356 C49.33656,40.7974086 53.8570435,38.5451789 59.7337601,38.5451789 C66.8159571,38.5451789 72.1275252,41.4355404 75.6686237,47.2163501 C77.3261592,44.5136338 79.6240716,42.3927842 82.56243,40.8537374 C85.5007883,39.3146907 88.5897853,38.5451789 91.8295137,38.5451789 C103.582947,38.5451789 109.459576,46.0901485 109.459576,61.180314 L109.459576,95.6397735 L93.6377252,95.6397735 L93.6377252,66.5857194 C93.6377252,60.2793816 92.9596527,56.0752194 91.6034873,53.9731068 C90.398007,52.0962205 88.5898136,51.1577915 86.1788529,51.1577915 C84.5213174,51.1577915 83.1275017,51.6082374 81.9973639,52.5091428 C80.8672261,53.4100483 80.0196354,54.404783 79.4545665,55.4933771 C78.8894976,56.5819711 78.4751199,58.0834576 78.2114211,59.9978816 C77.9477223,61.9123056 77.7970395,63.3762549 77.7593682,64.3897735 C77.721697,65.4032921 77.7028616,66.7733985 77.7028616,68.5001338 L77.7028616,95.6397735 L61.8810113,95.6397735 L61.8810113,67.5992329 L61.8810113,66.4731068 L61.8810113,62.5879717 C61.8810113,61.6495285 61.7491638,60.3544964 61.485465,58.7028365 C61.2217662,57.0511766 60.8450592,55.7561445 60.3553328,54.8177014 C59.8656064,53.8792583 59.0933572,53.0346721 58.0385619,52.2839176 C56.9837666,51.5331631 55.7406336,51.1577915 54.3091257,51.1577915 C52.3502202,51.1577915 50.7492156,51.6833118 49.506064,52.7343681 C48.2629124,53.7854244 47.4153217,55.324448 46.9632666,57.3514852 C46.5112115,59.3785223 46.2286813,61.0489261 46.1156675,62.3627464 C46.0026537,63.6765668 45.9461477,65.459582 45.9461477,67.7118455 L45.9461477,68.5001338 L45.9461477,95.6397735 L30.1242973,95.6397735 L30.1242973,40.3469807 L45.9461477,40.3469807 Z M136.582748,40.3469807 L136.582748,45.4145483 C140.425216,40.8349458 145.548431,38.5451789 151.952545,38.5451789 C159.486797,38.5451789 165.58945,41.4918461 170.260686,47.385269 C174.931923,53.2786918 177.267506,60.0541496 177.267506,67.7118455 C177.267506,75.7449187 174.950758,82.7080623 170.317193,88.6014852 C165.683628,94.494908 159.449128,97.4415753 151.613506,97.4415753 C148.675147,97.4415753 145.849845,96.8222121 143.137514,95.5834672 C140.425183,94.3447222 138.315625,92.6367814 136.808774,90.4595933 L136.582748,90.4595933 L136.582748,125.144278 L120.760897,125.144278 L120.760897,40.3469807 L136.582748,40.3469807 Z M148.110096,83.4776113 C151.952564,83.4776113 155.098067,81.8822819 157.546699,78.6915753 C159.995331,75.5008686 161.219629,71.9160696 161.219629,67.9370708 C161.219629,63.9580719 159.995331,60.3920415 157.546699,57.2388726 C155.098067,54.0857037 151.952564,52.5091428 148.110096,52.5091428 C144.267627,52.5091428 141.122124,54.0857037 138.673492,57.2388726 C136.22486,60.3920415 135.000563,63.9580719 135.000563,67.9370708 C135.000563,71.9160696 136.22486,75.5008686 138.673492,78.6915753 C141.122124,81.8822819 144.267627,83.4776113 148.110096,83.4776113 L148.110096,83.4776113 Z M200.435215,0.14427798 L200.435215,95.6397735 L184.613365,95.6397735 L184.613365,0.14427798 L200.435215,0.14427798 Z M227.558387,87.1938275 L203.938625,40.3469807 L221.907726,40.3469807 L235.130273,71.7658996 L249.369938,40.3469807 L267,40.3469807 L226.654282,125.144278 L209.250246,125.144278 L227.558387,87.1938275 Z" fill="#000000"></path>
</svg>
