<?xml version="1.0" encoding="UTF-8" standalone="no"?>
<svg width="13px" height="13px" viewBox="0 0 13 13" version="1.1" xmlns="http://www.w3.org/2000/svg" xmlns:xlink="http://www.w3.org/1999/xlink" xmlns:sketch="http://www.bohemiancoding.com/sketch/ns">
    <g stroke="none" stroke-width="1" fill="none" fill-rule="evenodd">
        <path d="M11.1819805,1 L4.70710678,7.47487373 L5.41421356,8.18198052 L12,1.59619408 L12,5 L13,5 L13,0 L12.5,0 L8,0 L8,1 L11.1819805,1 L11.1819805,1 Z M0,3 L7,3 L7,4 L0,4 L0,3 Z M1,12 L10,12 L10,13 L1,13 L1,12 Z M0,4 L1,4 L1,13 L0,13 L0,4 Z M9,6 L10,6 L10,12 L9,12 L9,6 Z" fill="#AAAAAA"></path>
    </g>
</svg>