<?xml version="1.0" encoding="UTF-8" standalone="no"?>
<svg width="13px" height="13px" viewBox="0 0 13 13" version="1.1" xmlns="http://www.w3.org/2000/svg" xmlns:xlink="http://www.w3.org/1999/xlink" xmlns:sketch="http://www.bohemiancoding.com/sketch/ns">
    <!-- Generator: Sketch 3.3.3 (12072) - http://www.bohemiancoding.com/sketch -->
    <title>Rectangle 92 Copy 4</title>
    <desc>Created with Sketch.</desc>
    <defs></defs>
    <g id="base-copy-110" stroke="none" stroke-width="1" fill="none" fill-rule="evenodd" sketch:type="MSPage">
        <g id="Group-Copy-8" sketch:type="MSLayerGroup" transform="translate(-11.000000, -104.000000)" fill="#AAAAAA">
            <path d="M16,112 L16,109 L19,109 L19,112 L16,112 Z M16,113 L16,115.792968 L16,115.792968 C16.4768318,115.927833 16.9799881,116 17.5,116 C18.0200119,116 18.5231682,115.927833 19,115.792968 L19,115.792968 L19,113 L16,113 Z M22.7929675,112 C22.9278328,111.523168 23,111.020012 23,110.5 C23,109.979988 22.9278328,109.476832 22.7929675,109 L22.7929675,109 L20,109 L20,112 L22.7929675,112 Z M22.4002904,113 C21.8733658,114.03077 21.0307701,114.873366 20,115.40029 L20,115.40029 L20,113 L22.4002904,113 Z M12.2070325,112 C12.0721672,111.523168 12,111.020012 12,110.5 C12,109.979988 12.0721672,109.476832 12.2070325,109 L12.2070325,109 L15,109 L15,112 L12.2070325,112 Z M12.5997096,113 C13.1266342,114.03077 13.9692299,114.873366 15,115.40029 L15,115.40029 L15,113 L12.5997096,113 Z M16,108 L16,105.207032 C16.4768318,105.072167 16.9799881,105 17.5,105 C18.0200119,105 18.5231682,105.072167 19,105.207032 L19,108 L16,108 L16,108 Z M22.4002904,108 C21.8733658,106.96923 21.0307701,106.126634 20,105.59971 L20,108 L22.4002904,108 L22.4002904,108 Z M12.5997096,108 C13.1266342,106.96923 13.9692299,106.126634 15,105.59971 L15,108 L12.5997096,108 L12.5997096,108 Z M17.5,117 C21.0898509,117 24,114.089851 24,110.5 C24,106.910149 21.0898509,104 17.5,104 C13.9101491,104 11,106.910149 11,110.5 C11,114.089851 13.9101491,117 17.5,117 Z" id="Rectangle-92-Copy-4" sketch:type="MSShapeGroup"></path>
        </g>
    </g>
</svg>