<?xml version="1.0" encoding="UTF-8" standalone="no"?>
<svg width="13px" height="13px" viewBox="0 0 13 13" version="1.1" xmlns="http://www.w3.org/2000/svg" xmlns:xlink="http://www.w3.org/1999/xlink" xmlns:sketch="http://www.bohemiancoding.com/sketch/ns">
    <g stroke="none" stroke-width="1" fill="none" fill-rule="evenodd">
        <path d="M4,8 L4,5 L0,5 L0,4 L4,4 L4,0 L5,0 L5,4 L8,4 L8,0 L9,0 L9,4 L13,4 L13,5 L9,5 L9,8 L13,8 L13,9 L9,9 L9,13 L8,13 L8,9 L5,9 L5,13 L4,13 L4,9 L0,9 L0,8 L4,8 Z M5,8 L5,5 L8,5 L8,8 L5,8 Z" fill="#AAAAAA"></path>
    </g>
</svg>