<?xml version="1.0" encoding="UTF-8" standalone="no"?>
<svg width="53px" height="53px" viewBox="0 0 53 53" version="1.1" xmlns="http://www.w3.org/2000/svg" xmlns:xlink="http://www.w3.org/1999/xlink" xmlns:sketch="http://www.bohemiancoding.com/sketch/ns">
    <!-- Generator: Sketch 3.3.3 (12072) - http://www.bohemiancoding.com/sketch -->
    <title>vis-line</title>
    <desc>Created with Sketch.</desc>
    <defs></defs>
    <g id="Page-1" stroke="none" stroke-width="1" fill="none" fill-rule="evenodd" sketch:type="MSPage">
        <g id="vis-line" sketch:type="MSArtboardGroup">
            <g id="Rectangle-1-Copy-6-+-Line-Chart-+-Path-11-Copy-+-Path-11-Copy-Copy" sketch:type="MSLayerGroup" transform="translate(4.000000, 11.000000)">
                <g id="Path-11-Copy-+-Path-11" sketch:type="MSShapeGroup">
                    <path d="M1.16430757,21.8129857 L9.86003467,9.8558428 L18.3890378,15.8344142 L26.9830676,1.88441423 L36.1894394,13.8415571 L44.653179,5.87012852 L44.653179,31.7540849 L1.02716959,31.7540849 L1.16430757,21.8129857 Z" id="Path-11-Copy" fill="#EEEEEE"></path>
                    <path d="M1.68999391,22.1952864 L10.385721,10.2381436 L9.48693789,10.388101 L18.015941,16.3666724 L18.5806979,16.7625498 L18.9424489,16.1753484 L27.5364787,2.22534841 L26.4680404,2.28095808 L35.6744122,14.2381009 L36.1124289,14.8069925 L36.6350911,14.314732 L45.0988307,6.34330346 L44.2075273,5.39695357 L35.7437876,13.3683821 L36.7044665,13.4450132 L27.4980947,1.48787038 L26.9235927,0.741712915 L26.4296564,1.54348005 L17.8356266,15.4934801 L18.7621346,15.302156 L10.2331315,9.3235846 L9.71005454,8.95692362 L9.33434834,9.47354203 L0.63862124,21.4306849 L1.68999391,22.1952864 L1.68999391,22.1952864 Z" id="Shape" fill="#999999"></path>
                </g>
            </g>
        </g>
    </g>
</svg>