<?xml version="1.0" encoding="UTF-8" standalone="no"?>
<svg width="53px" height="53px" viewBox="0 0 53 53" version="1.1" xmlns="http://www.w3.org/2000/svg" xmlns:xlink="http://www.w3.org/1999/xlink" xmlns:sketch="http://www.bohemiancoding.com/sketch/ns">
    <!-- Generator: Sketch 3.3.3 (12072) - http://www.bohemiancoding.com/sketch -->
    <title>vis-time-series</title>
    <desc>Created with Sketch.</desc>
    <defs></defs>
    <g id="Page-1" stroke="none" stroke-width="1" fill="none" fill-rule="evenodd" sketch:type="MSPage">
        <g id="vis-time-series" sketch:type="MSArtboardGroup">
            <g id="Rectangle-1-Copy-6-+-Line-Chart-+-Path-11-Copy-+-Path-11-Copy-Copy" sketch:type="MSLayerGroup" transform="translate(4.000000, 12.000000)">
                <g id="Path-11-Copy-+-Path-11" sketch:type="MSShapeGroup">
                    <path d="M1,20.8129857 L9.86003467,8.8558428 L18.3890378,14.8344142 L26.9830676,0.88441423 L36.1894394,12.8415571 L45,4.87012852 L45,30.7540849 L1,30.7540849 L1,20.8129857 Z" id="Path-11-Copy" fill="#EEEEEE"></path>
                    <path d="M1.56868168,21.1070632 L10.2644088,9.14992032 L9.57303714,9.26527218 L18.1020402,15.2438436 L18.5364686,15.5483647 L18.8147387,15.0966713 L27.4087684,1.14667129 L26.5868928,1.18944796 L35.7932646,13.1465908 L36.1302005,13.5841997 L36.5322484,13.2055378 L44.995988,5.23410924 L44.31037,4.50614779 L35.8466303,12.4775764 L36.5856141,12.5365234 L27.3792423,0.579380497 L26.9373177,0.00541321826 L26.5573667,0.62215717 L17.9633369,14.5721572 L18.6760353,14.4249848 L10.1470322,8.44641342 L9.74466534,8.16436651 L9.45566057,8.56176529 L0.759933471,20.5189081 L1.56868168,21.1070632 L1.56868168,21.1070632 Z" id="Shape" fill="#939393"></path>
                </g>
            </g>
        </g>
    </g>
</svg>