<?xml version="1.0" encoding="UTF-8" standalone="no"?>
<svg width="53px" height="53px" viewBox="0 0 53 53" version="1.1" xmlns="http://www.w3.org/2000/svg" xmlns:xlink="http://www.w3.org/1999/xlink" xmlns:sketch="http://www.bohemiancoding.com/sketch/ns">
    <g stroke="none" stroke-width="1" fill="none" fill-rule="evenodd">
        <g stroke="#AAAAAA">
            <g transform="translate(9.000000, 9.000000)">
                <g>
                    <g>
                        <circle fill="#EEEEEE" cx="17.5" cy="17.5" r="17.5"></circle>
                        <path d="M30.6707152,12.6587974 L32.3941016,12.6587974 L33.8709677,12.5690187 C33.7326759,12.098061 33.5770977,11.6354724 33.4027298,11.1820138 L32.5023299,11.1972306 L32.0506268,10.6950785 L31.2524427,11.1302769 L30.5842828,10.4105256 L30.5572257,9.73033781 L29.1622824,9.60327812 L28.3062261,9.17492718 L27.7583201,9.67707926 L27.2028981,9.56143211 L26.8586718,8.01236903 L27.4839912,7.11838616 L28.1296035,7.0088257 L28.927036,7.0963219 L28.8082855,6.25635842 L28.1002916,6.54547628 L27.4396477,5.85996261 L27.3622343,5.43009 L27.6974416,5.06032346 L28.4948742,4.74381549 L28.7000571,4.37252728 C25.6523765,1.65481936 21.6576977,0 17.2864745,0 C13.4932207,0 9.98406638,1.24625016 7.13029492,3.35148472 L9.17986952,2.8843802 L12.1337522,2.8988361 L14.4426239,2.76497796 L13.2376815,4.51023869 L12.4838409,4.74229381 L10.9430899,5.6552976 L11.1159547,6.29820443 L11.5466134,6.58275727 L12.2759777,6.68455305 L12.4079307,6.70296944 L12.4079307,7.69433938 L12.8062712,7.62966828 L13.1730451,6.85513673 L14.0892283,6.56145385 L15.7442203,6.06310595 L16.0749181,6.06310595 L17.024171,6.64438503 L17.6833118,7.05143255 L17.6555031,7.66314508 L15.9621802,8.03975914 L15.4037519,7.69433938 L14.8550942,7.83737664 L13.9592039,9.15742794 L12.9287797,9.87413591 L11.8652858,10.9940872 L11.7923819,11.4924351 L10.7266332,12.2015347 L10.1982683,12.7394461 L9.52935694,12.8406374 L7.49030454,12.8413982 L6.43432643,13.3823529 L5.79397529,14.9169601 L6.0908517,15.5750837 L6.92285723,15.6777966 L8.9634128,16.1723403 L9.0641253,17.7457502 L10.4432853,17.9831312 L11.3196344,16.9575236 L12.3831284,17.1766445 L12.7566666,17.7023825 L13.7765686,17.6415156 L14.9978956,18.6146255 L16.0891982,18.6298422 L16.4920482,19.3435068 L16.5491687,20.2154254 L17.7562156,20.6802965 L19.2789285,20.6962741 L20.399543,21.6556889 L20.2702703,22.2681623 L19.5307098,23.2192079 L19.3150047,25.3259641 L18.6468448,25.8600713 L17.6562547,25.8303987 L17.3263085,26.4116778 L17.5713255,27.5042389 L16.4927998,28.8996131 L16.1485735,29.5402374 L15.1211556,30.0393461 L14.891922,30.5711708 L14.4101554,31.2977697 L15.1504675,32.0403461 L14.9708385,32.7532499 L15.7269338,33.3976784 L15.6262213,33.7324464 L14.5973003,33.7126647 L13.5736404,32.8087909 L12.7762078,31.3898309 L12.8874425,30.0203252 L12.2839191,29.2054693 L12.5281845,27.8245511 L12.169678,27.7233599 L12.169678,24.7271858 C12.169678,24.7271858 11.1640562,23.9556976 11.106184,23.9556976 C11.0483119,23.9556976 10.5740613,23.8248337 10.5740613,23.8248337 L10.4733488,23.2587714 L9.16634098,21.6001478 L9.29561375,21.0044129 L9.33845414,20.0297813 L10.2433635,19.389157 L10.1140907,18.2981175 L8.79280281,18.1976871 L7.75862069,17.0046954 L7.02582449,16.7992696 L6.0059225,16.1883179 L4.49673812,16.0544107 L3.88945675,15.1140168 L3.34681177,14.6575149 L2.78688032,14.5700187 L2.0976761,13.3808313 L2.0976761,11.9968697 L1.37916003,11.6476458 L1.37916003,10.6517108 C0.492288729,12.7561845 0,15.0706491 0,17.5 C0,27.1496891 7.75486276,35 17.287226,35 C22.6911283,35 27.5223221,32.4755445 30.694766,28.5313682 L30.1243123,28.5313682 L30.1243123,27.3680492 L29.4644199,26.4687405 L29.4644199,25.0695622 L28.9608574,24.5613234 L28.9165138,23.9792835 L29.556865,22.7429242 L28.344557,20.5753011 L28.4866067,19.1046041 L27.3953041,18.9904787 L26.9932057,18.5834312 L26.2596579,18.5834312 L25.8868713,18.9318943 L24.5498001,19.0483022 L23.8305324,19.0483022 L22.1800499,17.1439285 L22.1935785,15.6602974 L22.1800499,14.9915221 L22.0214653,14.3957871 L23.9312449,13.000413 L23.9312449,12.0113256 L24.8662177,11.4855876 L26.0138893,11.5236294 L26.6159096,11.1964697 L28.5557526,11.0435416 L28.5557526,12.0470849 L30.0897394,12.4404374 L30.6707152,12.6587974 Z" fill="#FFFFFF"></path>
                    </g>
                </g>
            </g>
        </g>
    </g>
</svg>