<?xml version="1.0" encoding="UTF-8" standalone="no"?>
<svg width="53px" height="53px" viewBox="0 0 53 53" version="1.1" xmlns="http://www.w3.org/2000/svg" xmlns:xlink="http://www.w3.org/1999/xlink" xmlns:sketch="http://www.bohemiancoding.com/sketch/ns">
    <!-- Generator: Sketch 3.3.3 (12072) - http://www.bohemiancoding.com/sketch -->
    <title>vis-bar-chart</title>
    <desc>Created with Sketch.</desc>
    <defs></defs>
    <g id="Page-1" stroke="none" stroke-width="1" fill="none" fill-rule="evenodd" sketch:type="MSPage">
        <g id="vis-bar-chart" sketch:type="MSArtboardGroup">
            <path d="M12,14 L41,14 L41,19 L12,19 L12,14 Z M12,21 L34,21 L34,26 L12,26 L12,21 Z M12,28 L26,28 L26,33 L12,33 L12,28 Z M12,35 L21,35 L21,40 L12,40 L12,35 Z" id="Rectangle-46" fill="#E6E6E6" sketch:type="MSShapeGroup"></path>
            <path d="M12,15 L12,15 L13,14 L13,19 L12,18 L41,18 L40,19 L40,14 L41,15 L12,15 Z M12,14 L41,14 L41,19 L12,19 L12,14 L12,14 Z M12,22 L12,22 L13,21 L13,26 L12,25 L34,25 L33,26 L33,21 L34,22 L12,22 Z M12,21 L34,21 L34,26 L12,26 L12,21 L12,21 Z M12,29 L12,29 L13,28 L13,33 L12,32 L26,32 L25,33 L25,28 L26,29 L12,29 Z M12,28 L26,28 L26,33 L12,33 L12,28 L12,28 Z M12,36 L12,36 L13,35 L13,40 L12,39 L21,39 L20,40 L20,35 L21,36 L12,36 Z M12,35 L21,35 L21,40 L12,40 L12,35 L12,35 Z" id="Shape" fill="#AAAAAA" sketch:type="MSShapeGroup"></path>
        </g>
    </g>
</svg>