<?xml version="1.0" encoding="UTF-8" standalone="no"?>
<svg width="53px" height="53px" viewBox="0 0 53 53" version="1.1" xmlns="http://www.w3.org/2000/svg" xmlns:xlink="http://www.w3.org/1999/xlink" xmlns:sketch="http://www.bohemiancoding.com/sketch/ns">
    <!-- Generator: Sketch 3.3.3 (12072) - http://www.bohemiancoding.com/sketch -->
    <title>vis-totals</title>
    <desc>Created with Sketch.</desc>
    <defs></defs>
    <g id="Page-1" stroke="none" stroke-width="1" fill="none" fill-rule="evenodd" sketch:type="MSPage">
        <g id="vis-totals" sketch:type="MSArtboardGroup">
            <g id="Rectangle-1-Copy-6-+-Line-Chart-+-Path-11-Copy-+-Path-11-Copy-Copy-Copy-Copy" sketch:type="MSLayerGroup" transform="translate(5.000000, 12.000000)">
                <path d="M0,1 L0,1 L1,0 L1,29 L0,28 L43,28 L42,29 L42,0 L43,1 L0,1 Z M0,0 L43,0 L43,29 L0,29 L0,0 L0,0 Z" id="Shape" fill="#CCCCCC" sketch:type="MSShapeGroup"></path>
                <path d="M15.3205566,20 L13.8288574,20 L13.8288574,14.0078125 C13.8288574,13.2926397 13.8457843,12.725588 13.8796387,12.3066406 C13.7823075,12.4082036 13.6627611,12.5203444 13.5209961,12.6430664 C13.3792311,12.7657884 12.9042195,13.1551074 12.0959473,13.8110352 L11.3469238,12.8652344 L14.076416,10.7197266 L15.3205566,10.7197266 L15.3205566,20 Z M24.6516113,20 L18.361084,20 L18.361084,18.8701172 L20.7541504,16.4643555 C21.4608597,15.740719 21.9295236,15.227622 22.1601562,14.9250488 C22.3907889,14.6224757 22.5590001,14.337892 22.6647949,14.0712891 C22.7705897,13.8046862 22.8234863,13.5190445 22.8234863,13.2143555 C22.8234863,12.7954081 22.6975924,12.4653332 22.4458008,12.2241211 C22.1940092,11.982909 21.8459495,11.8623047 21.4016113,11.8623047 C21.0461408,11.8623047 20.7023129,11.9278965 20.3701172,12.059082 C20.0379215,12.1902676 19.6538922,12.4272444 19.2180176,12.7700195 L18.4118652,11.7861328 C18.9281439,11.3502582 19.4296037,11.0413421 19.9162598,10.859375 C20.4029158,10.6774079 20.9213026,10.5864258 21.4714355,10.5864258 C22.3347211,10.5864258 23.0266087,10.8117653 23.5471191,11.2624512 C24.0676296,11.713137 24.3278809,12.3193321 24.3278809,13.0810547 C24.3278809,13.5000021 24.2527677,13.8977846 24.1025391,14.2744141 C23.9523104,14.6510435 23.7216812,15.0393046 23.4106445,15.439209 C23.0996078,15.8391133 22.582279,16.3797166 21.8586426,17.0610352 L20.2463379,18.6225586 L20.2463379,18.6860352 L24.6516113,18.6860352 L24.6516113,20 Z M31.7229004,12.8525391 C31.7229004,13.4407581 31.5515154,13.9305807 31.2087402,14.3220215 C30.8659651,14.7134622 30.383548,14.9768873 29.7614746,15.1123047 L29.7614746,15.1630859 C30.50627,15.2561854 31.0648582,15.4878725 31.4372559,15.8581543 C31.8096536,16.2284361 31.9958496,16.7203745 31.9958496,17.3339844 C31.9958496,18.2268925 31.6805858,18.9156063 31.0500488,19.4001465 C30.4195118,19.8846867 29.5223854,20.1269531 28.3586426,20.1269531 C27.3303171,20.1269531 26.4628128,19.9597998 25.7561035,19.6254883 L25.7561035,18.2988281 C26.1496602,18.4934906 26.5664854,18.6437169 27.0065918,18.7495117 C27.4466982,18.8553065 27.869871,18.9082031 28.276123,18.9082031 C28.9955277,18.9082031 29.5329572,18.7749037 29.8884277,18.5083008 C30.2438983,18.2416979 30.4216309,17.8291044 30.4216309,17.2705078 C30.4216309,16.7753881 30.2248555,16.4114595 29.8312988,16.1787109 C29.4377422,15.9459624 28.8199098,15.8295898 27.9777832,15.8295898 L27.1716309,15.8295898 L27.1716309,14.6171875 L27.9904785,14.6171875 C29.4716057,14.6171875 30.2121582,14.1051483 30.2121582,13.0810547 C30.2121582,12.6832662 30.0830905,12.3764659 29.8249512,12.1606445 C29.5668119,11.9448231 29.1859563,11.8369141 28.682373,11.8369141 C28.3311343,11.8369141 27.992596,11.8866369 27.666748,11.986084 C27.3409001,12.0855311 26.9558128,12.2791327 26.5114746,12.5668945 L25.7814941,11.5258789 C26.6320843,10.8995737 27.6201929,10.5864258 28.7458496,10.5864258 C29.6810756,10.5864258 30.4110488,10.7874329 30.935791,11.1894531 C31.4605332,11.5914734 31.7229004,12.1458298 31.7229004,12.8525391 L31.7229004,12.8525391 Z" id="123" fill="#888888" sketch:type="MSShapeGroup"></path>
            </g>
        </g>
    </g>
</svg>