<?xml version="1.0" encoding="UTF-8" standalone="no"?>
<svg width="551px" height="221px" viewBox="0 0 551 221" version="1.1" xmlns="http://www.w3.org/2000/svg" xmlns:xlink="http://www.w3.org/1999/xlink" xmlns:sketch="http://www.bohemiancoding.com/sketch/ns">
    <g stroke="none" stroke-width="1" fill="none" fill-rule="evenodd">
        <g fill="#189AE0">
            <path d="M113.975793,190 C158.145203,190 193.951585,154.18278 193.951585,110 C193.951585,65.81722 158.145203,30 113.975793,30 C69.806382,30 34,65.81722 34,110 C34,154.18278 69.806382,190 113.975793,190 Z M113.839127,145.524549 L111.430972,150.811171 L122.64335,155.352941 L125.051506,150.066319 C128.503654,142.487821 134.721706,135.359071 142.950624,128.852781 C147.723783,125.078828 152.864626,121.755599 158.004467,118.927214 C159.799807,117.939262 161.461557,117.086276 162.943805,116.372414 C163.809752,115.955367 164.406373,115.684419 164.687939,115.563318 L164.57975,105.04812 C164.304691,104.935844 163.715865,104.680817 162.858851,104.285221 C161.388956,103.606719 159.740304,102.791513 157.958654,101.842221 C152.856442,99.1236816 147.752873,95.895573 143.014747,92.1900001 C134.72425,85.7062029 128.493032,78.4891615 125.089233,70.6751402 L122.770875,65.3529412 L111.483043,69.7253523 L113.801401,75.0475513 C116.374734,80.9550926 120.121249,86.4508697 124.828755,91.5519327 L68.9312087,91.5519327 L68.9312087,103.059373 L134.371086,103.059373 L137.883573,103.059373 C142.43591,106.392191 144.949318,107.816565 149.709646,110.352943 C145.206767,112.830817 142.848867,114.285618 138.52173,117.443674 L134.371086,117.443674 L68.9312087,117.443674 L68.9312087,128.951114 L125.293108,128.951114 C120.4167,134.109251 116.524604,139.629124 113.839127,145.524549 Z"></path>
            <path d="M376.770293,140.711553 C378.850351,143.225527 381.284895,145.294175 384.070547,146.916113 C387.680831,149.018191 391.582884,150.071669 395.758277,150.071669 C404.711317,150.071669 411.829871,146.85964 417.023086,140.454676 C422.168616,134.108523 424.741104,126.360144 424.741104,117.252605 C424.741104,108.638149 422.1208,101.177866 416.888365,94.9166847 C411.615576,88.6072152 404.710868,85.4374253 396.256828,85.4374253 C388.355707,85.4374253 381.844589,88.6601463 376.794132,95.0478376 L376.794132,95.0478376 L376.755586,95.0478376 L376.755586,88.2654412 L376.755586,87.1942231 L375.691606,87.1942231 L364.474212,87.1942231 L363.410232,87.1942231 L363.410232,88.2654412 L363.410232,180.622812 L363.410232,181.69403 L364.474212,181.69403 L375.691606,181.69403 L376.755586,181.69403 L376.755586,180.622812 L376.755586,140.711553 L376.770293,140.711553 L376.770293,140.711553 Z M313.129543,94.8988723 C309.01829,88.6181353 303.37753,85.4374253 296.297386,85.4374253 C293.023795,85.4374253 289.903277,86.3509825 286.955067,88.1673836 C284.898276,89.4345784 283.129143,90.955812 281.651442,92.7284852 L281.651442,92.7284852 L281.657015,92.7284852 C281.657015,91.2441182 281.657015,88.2654412 281.657015,88.2654412 L281.657015,87.1942231 L280.593034,87.1942231 L269.375641,87.1942231 L268.31166,87.1942231 L268.31166,88.2654412 L268.31166,146.992682 L268.31166,148.0639 L269.375641,148.0639 L280.593034,148.0639 L281.657015,148.0639 L281.657015,146.992682 L281.657015,118.131004 C281.657015,115.326679 281.779547,112.900494 282.023349,110.854987 C282.263659,108.838783 282.766724,106.67102 283.534299,104.352628 C284.252389,102.183704 285.442729,100.535852 287.116927,99.3746705 C288.797602,98.2089965 290.934767,97.6187062 293.555356,97.6187062 C295.352868,97.6187062 296.855492,98.0245915 298.087493,98.827192 C299.371773,99.6638493 300.316349,100.596203 300.934287,101.620907 C301.566253,102.668873 302.066196,104.140188 302.418297,106.030833 C302.784792,107.998768 303.007613,109.630305 303.087653,110.919662 C303.169204,112.233352 303.210219,113.885106 303.210219,115.872264 L303.210219,146.992682 L303.210219,148.0639 L304.274199,148.0639 L315.491593,148.0639 L316.555573,148.0639 L316.555573,146.992682 L316.555573,118.131004 C316.555573,115.981173 316.61704,114.083356 316.73955,112.438785 C316.85963,110.826826 317.161977,109.000402 317.647933,106.961812 C318.120618,104.978892 318.763139,103.351862 319.567494,102.079278 C320.346155,100.847344 321.468727,99.7924827 322.949472,98.9132828 C324.396,98.0543988 326.183441,97.6187062 328.329277,97.6187062 C330.461602,97.6187062 332.193186,98.0686064 333.545922,98.9520253 C334.888196,99.8286126 335.866907,101.087695 336.494824,102.761136 C337.172072,104.566044 337.608011,106.281763 337.805007,107.908121 C338.007137,109.576861 338.108777,111.521153 338.108777,113.739009 L338.108777,146.992682 L338.108777,148.0639 L339.172757,148.0639 L350.390151,148.0639 L351.454132,148.0639 L351.454132,146.992682 L351.454132,111.856726 C351.454132,94.4189437 344.608937,85.4374253 331.071306,85.4374253 C327.227453,85.4374253 323.595985,86.4285558 320.194682,88.4041947 C317.314632,90.0770649 314.959609,92.2443891 313.138509,94.8988723 L313.129543,94.8988723 L313.129543,94.8988723 Z M252.865704,88.2654412 L252.865704,87.1942231 L251.801724,87.1942231 L240.58433,87.1942231 L239.52035,87.1942231 L239.52035,88.2654412 L239.52035,146.992682 L239.52035,148.0639 L240.58433,148.0639 L251.801724,148.0639 L252.865704,148.0639 L252.865704,146.992682 L252.865704,88.2654412 L252.865704,88.2654412 Z M246.193027,52.4347236 C243.745977,52.4347236 241.642765,53.3250441 239.946385,55.0804053 C238.257068,56.8284595 237.401509,58.9579794 237.401509,61.4115319 C237.401509,63.788528 238.262428,65.8591602 239.95662,67.5648765 C241.653013,69.2728092 243.752103,70.1373691 246.193027,70.1373691 C248.633951,70.1373691 250.733041,69.2728092 252.429434,67.5648765 C254.123625,65.8591602 254.984545,63.788528 254.984545,61.4115319 C254.984545,58.9579794 254.128986,56.8284595 252.439669,55.0804053 C250.743289,53.3250441 248.640077,52.4347236 246.193027,52.4347236 L246.193027,52.4347236 Z M393.514798,137.890388 C388.182268,137.890388 384.002893,135.94233 380.884755,132.018144 C377.71581,128.030017 376.132398,123.247466 376.132398,117.629062 C376.132398,112.099058 377.733357,107.382905 380.93972,103.437359 C384.100089,99.5484104 388.262545,97.6187062 393.514798,97.6187062 C399.026442,97.6187062 403.338354,99.5155561 406.537038,103.325105 C409.776239,107.182908 411.39575,111.935298 411.39575,117.629062 C411.39575,123.411194 409.793717,128.230073 406.591793,132.130358 C403.435486,135.975076 399.106621,137.890388 393.514798,137.890388 L393.514798,137.890388 Z M447.425167,38.0712182 L447.425167,37 L446.361187,37 L435.143793,37 L434.079812,37 L434.079812,38.0712182 L434.079812,146.992682 L434.079812,148.0639 L435.143793,148.0639 L446.361187,148.0639 L447.425167,148.0639 L447.425167,146.992682 L447.425167,38.0712182 L447.425167,38.0712182 Z M455.765521,180.122102 L454.940002,181.69403 L456.706116,181.69403 L469.419163,181.69403 L470.068033,181.69403 L470.365093,181.113228 L517.602785,88.7558577 L518.401509,87.1942231 L516.656854,87.1942231 L504.068446,87.1942231 L503.407889,87.1942231 L503.114874,87.7902609 L485.721414,123.205966 L466.993276,87.7623305 L466.693092,87.1942231 L466.053945,87.1942231 L452.966985,87.1942231 L451.165067,87.1942231 L452.035318,88.7827946 L478.456695,137.012843 L455.765521,180.122102 L455.765521,180.122102 Z"></path>
        </g>
    </g>
</svg>