<svg version="1" xmlns="http://www.w3.org/2000/svg" width="933.333" height="933.333" viewBox="0 0 700.000000 700.000000"><path d="M203.8 120.3L58.1 199.5 58 350.1v150.6l143.7 78.1c79.1 42.9 145 78.6 146.4 79.2 2.4 1.1 12.2-4 147.5-77.5 79.7-43.3 145.5-79.2 146.2-79.7.9-.8 1.2-31.8 1-151.1l-.3-150-146-79.3C416.2 76.7 350.3 41.1 350 41.1c-.3 0-66.1 35.7-146.2 79.2zm261.1 17.2c62.7 34.1 113.7 62.3 113.3 62.7-1.5 1.4-67.4 36.9-68.1 36.6-.4-.2-50.6-29.1-111.5-64.3l-110.7-63.9 3.3-1.7c1.8-1 15.7-8.5 30.8-16.8 15.1-8.2 27.8-14.9 28.1-14.8.4.1 52 28.1 114.8 62.2zM378 179c57.5 33.1 107.1 61.8 110.3 63.7l5.8 3.5-31.2 16.9c-17.2 9.4-31.8 16.9-32.4 16.7-1.7-.4-221.4-127.2-221.5-127.8 0-1.1 61.6-34 63-33.6.9.1 48.6 27.4 106 60.6zm-74.9 46c60.2 34.7 109.8 63.5 110.2 63.9.4.4-13.5 8.5-31 18-26.2 14.3-32.2 17.1-34.1 16.4-3.6-1.3-227.1-122.7-227.2-123.4 0-1 70.5-38.9 71.6-38.5.7.3 50.4 28.9 110.5 63.6zm-176.2 12.4l31.1 16.9V521l-6.2-3.5c-3.5-1.9-17.8-9.7-31.8-17.3l-25.5-14-.3-133.2c-.1-76.8.2-133 .7-132.8.5.1 14.9 7.9 32 17.2zm478.4 62.7c-.7.5-226.4 125.7-234 129.8l-2.3 1.2v-82.6l118.3-64.2 118.2-64.2.3 39.7c.1 21.7-.1 39.9-.5 40.3zm-396.8-18.4l31 17 .3 133.1c.1 73.3-.1 133.2-.5 133.1-.5 0-15-7.8-32.3-17.3l-31.5-17.2-.3-133.3c-.2-106.6 0-133.2 1-132.8.7.3 15.3 8.1 32.3 17.4zM301 332l30.5 16.6.3 133.2c.1 73.3 0 133.2-.3 133.2-1.5 0-76.5-41.5-75.6-41.8.8-.3 1.1-37.7 1.1-132.8V308l6.8 3.8c3.7 2 20.4 11.1 37.2 20.2zm304.3 59.1c-.8.8-235.4 130.9-236 130.9-.2 0-.3-16.3-.3-36.3v-36.3l118.3-65.5 118.2-65.6.3 36.1c.1 19.8-.1 36.3-.5 36.7zm.7 57.2v39.2l-117.5 64c-64.7 35.2-118 64.1-118.5 64.3-.6.2-1-13.5-1-37.5v-37.8l118.3-65.6c65-36.2 118.3-65.7 118.5-65.8.1-.1.2 17.6.2 39.2z"/></svg>