<?xml version="1.0" standalone="no"?>
<!DOCTYPE svg PUBLIC "-//W3C//DTD SVG 20010904//EN"
 "http://www.w3.org/TR/2001/REC-SVG-20010904/DTD/svg10.dtd">
<svg version="1.0" xmlns="http://www.w3.org/2000/svg"
 width="1024.000000pt" height="1024.000000pt" viewBox="0 0 1024.000000 1024.000000"
 preserveAspectRatio="xMidYMid meet">
<metadata>
Created by potrace 1.11, written by Peter Selinger 2001-2013
</metadata>
<g transform="translate(0.000000,1024.000000) scale(0.100000,-0.100000)"
fill="#000000" stroke="none">
<path d="M2978 8478 l-2138 -1162 0 -2198 0 -2198 22 -14 c13 -8 977 -533
2143 -1166 l2120 -1151 35 20 c19 10 973 528 2120 1151 1147 622 2095 1138
2108 1146 l22 14 0 2198 0 2198 -2139 1162 c-1177 639 -2144 1162 -2148 1162
-4 -1 -970 -523 -2145 -1162z m3823 -255 c987 -536 1665 -910 1657 -914 -7 -3
-230 -124 -496 -268 -265 -145 -488 -261 -496 -259 -18 4 -3236 1862 -3236
1868 0 8 873 479 888 480 7 0 765 -408 1683 -907z m-1216 -638 c875 -504 1601
-924 1613 -932 23 -14 7 -24 -434 -263 l-458 -248 -46 26 c-1230 707 -3197
1849 -3192 1853 25 23 900 489 912 486 8 -2 731 -417 1605 -922z m-1155 -639
c883 -510 1609 -931 1613 -935 7 -7 -855 -484 -914 -506 -9 -3 -654 341 -1675
896 -912 495 -1665 904 -1672 908 -15 9 1015 574 1033 567 6 -2 732 -421 1615
-930z m-2572 -186 l452 -245 0 -1943 c0 -1176 -4 -1942 -9 -1940 -5 2 -212
113 -460 248 l-451 245 0 1943 c0 1069 4 1942 8 1940 5 -1 212 -113 460 -248z
m7002 -328 l0 -578 -1721 -955 c-947 -525 -1726 -955 -1730 -957 -5 -2 -9 261
-9 595 l0 598 1723 937 c947 515 1725 937 1730 937 4 1 7 -259 7 -577z m-5808
-320 l457 -247 1 -1946 0 -1947 -432 235 c-238 130 -452 246 -475 260 l-43 24
0 1940 c0 1845 1 1941 18 1934 9 -3 223 -117 474 -253z m1356 -737 l442 -240
0 -1943 c0 -1372 -3 -1943 -11 -1940 -39 13 -1094 594 -1083 596 12 3 14 308
14 1938 l0 1934 98 -52 c54 -29 297 -161 540 -293z m4450 -331 l-3 -526 -1145
-635 c-630 -349 -1407 -780 -1728 -958 l-582 -323 2 530 3 530 1720 954 c946
524 1723 954 1728 954 4 0 6 -237 5 -526z m0 -1371 l-3 -568 -1720 -937 c-946
-515 -1723 -937 -1727 -937 -5 -1 -8 246 -8 547 l0 548 1723 956 c947 526
1725 956 1730 957 4 1 6 -254 5 -566z"/>
</g>
</svg>
