<?xml version="1.0" standalone="no"?>
<!DOCTYPE svg PUBLIC "-//W3C//DTD SVG 20010904//EN"
 "http://www.w3.org/TR/2001/REC-SVG-20010904/DTD/svg10.dtd">
<svg version="1.0" xmlns="http://www.w3.org/2000/svg"
 width="520.000000pt" height="520.000000pt" viewBox="0 0 520.000000 520.000000"
 preserveAspectRatio="xMidYMid meet">
<metadata>
Created by potrace 1.11, written by Peter Selinger 2001-2013
</metadata>
<g transform="translate(0.000000,520.000000) scale(0.100000,-0.100000)"
fill="#000000" stroke="none">
<path d="M2509 5108 c-52 -27 -139 -73 -194 -102 -55 -29 -179 -95 -275 -146
-230 -121 -330 -175 -415 -220 -38 -21 -115 -61 -170 -90 -55 -29 -165 -88
-245 -130 -80 -42 -192 -102 -250 -132 -138 -73 -427 -226 -565 -300 -60 -32
-147 -78 -193 -101 l-82 -41 2 -1249 3 -1248 100 -53 c274 -145 1159 -613
1220 -646 39 -20 124 -65 190 -100 66 -34 134 -70 150 -80 17 -10 89 -48 160
-85 72 -37 153 -80 180 -95 28 -15 146 -78 263 -139 l212 -113 118 63 c64 34
160 84 212 112 52 27 113 60 135 72 22 12 85 46 140 75 55 29 143 75 195 103
52 27 127 66 165 87 39 21 113 60 165 88 109 57 387 204 505 267 161 85 633
335 735 389 l105 55 3 1249 2 1250 -27 11 c-16 5 -39 17 -53 25 -14 9 -88 49
-165 89 -77 41 -183 97 -235 124 -52 28 -135 72 -185 98 -49 26 -121 64 -160
85 -38 20 -119 63 -180 95 -60 31 -143 75 -182 96 -162 86 -224 119 -348 184
-71 37 -143 76 -160 85 -16 10 -84 46 -150 80 -66 35 -147 77 -180 95 -33 18
-109 59 -170 90 -60 32 -149 79 -196 105 l-86 47 -94 -49z"/>
</g>
</svg>
