<svg width="95" height="23" viewBox="0 0 95 23" fill="none" xmlns="http://www.w3.org/2000/svg">
<path d="M8.62321 0H1.29694C0.3007 0 -0.322954 1.07624 0.175168 1.9391L11.5799 21.6928C11.8109 22.0929 12.2383 22.3397 12.7017 22.3397H16.3822C16.8469 22.3397 17.2756 22.0916 17.5066 21.6888L19.3241 18.5135C19.5525 18.1147 19.5512 17.6239 19.3215 17.2265L9.74498 0.646811C9.51395 0.246722 9.08661 0 8.62321 0ZM20.4392 8.92066H24.1117C24.5725 8.92066 24.9985 8.6766 25.2295 8.27918L26.9415 5.34653C27.1752 4.94644 27.1766 4.45166 26.9455 4.05024L24.9838 0.648145C24.7527 0.248055 24.3254 0 23.862 0H15.2724C14.9399 0 14.7329 0.36008 14.8985 0.646811L19.3188 8.27518C19.5498 8.67394 19.9772 8.92066 20.4392 8.92066Z" fill="white"/>
<path d="M55.8459 13.6658C55.5481 14.0272 55.2369 14.3153 54.8964 14.5366C54.5799 14.7313 54.222 14.882 53.8106 14.9967C53.4501 15.0821 53.0575 15.1248 52.6168 15.1248C51.8235 15.1248 51.1504 14.9381 50.6109 14.5873C49.9058 14.1285 49.4277 13.387 49.2127 12.4108H58.8934C58.9695 12.0814 58.9949 11.6493 58.9949 11.2946C58.9949 7.235 56.4028 4.31702 52.542 4.31702C49.6761 4.31702 47.3858 5.73867 46.2694 7.99384C45.7926 8.95805 45.5295 10.073 45.5295 11.2959C45.5295 11.7747 45.5723 12.2375 45.6511 12.6829C45.6537 12.6976 45.6564 12.7136 45.6591 12.7282C45.8046 13.4591 46.0397 14.1339 46.3522 14.7447C47.4953 16.8998 49.7469 18.2735 52.5927 18.2735C53.0441 18.2735 53.5315 18.2641 53.9482 18.1988C55.6522 17.8614 57.005 17.1052 57.9839 15.8583L56.2973 12.9469C56.1597 13.2163 56.0101 13.4551 55.8472 13.6698L55.8459 13.6658ZM50.2784 8.18721C50.8366 7.68844 51.5764 7.41104 52.4645 7.41104C54.1165 7.41104 55.2596 8.50195 55.5133 10.1517H49.2127C49.385 9.32614 49.7509 8.65799 50.2784 8.18721Z" fill="white"/>
<path d="M60.3413 4.72119V17.8641H63.8989V7.84189L62.0894 4.72119H60.3413Z" fill="white"/>
<path d="M66.4449 4.72119H63.8982V7.84189H67.4224L66.4449 4.72119Z" fill="white"/>
<path d="M36.6251 17.8641L32.5039 4.7038H36.2432L38.9902 14.7634H39.0917L41.8133 4.7038H45.5272L41.4314 17.8641H36.6238H36.6251Z" fill="white"/>
<path d="M91.4382 13.6658C91.1403 14.0272 90.8292 14.3153 90.4887 14.5366C90.1722 14.7313 89.8143 14.882 89.4029 14.9967C89.0424 15.0821 88.6497 15.1248 88.209 15.1248C87.4158 15.1248 86.7427 14.9381 86.2032 14.5873C85.4981 14.1285 85.02 13.387 84.805 12.4108H94.4856C94.5618 12.0814 94.5871 11.6493 94.5871 11.2946C94.5871 7.235 91.995 4.31702 88.1343 4.31702C85.2684 4.31702 82.9781 5.73867 81.8617 7.99384C81.3849 8.95805 81.1218 10.073 81.1218 11.2959C81.1218 11.7747 81.1646 12.2375 81.2433 12.6829C81.246 12.6976 81.2487 12.7136 81.2514 12.7282C81.3969 13.4591 81.632 14.1339 81.9445 14.7447C83.0876 16.8998 85.3392 18.2735 88.185 18.2735C88.6364 18.2735 89.1238 18.2641 89.5405 18.1988C91.2445 17.8614 92.5973 17.1052 93.5762 15.8583L91.8895 12.9469C91.752 13.2163 91.6024 13.4551 91.4395 13.6698L91.4382 13.6658ZM85.8707 8.18721C86.4289 7.68844 87.1687 7.41104 88.0568 7.41104C89.7087 7.41104 90.8519 8.50195 91.1056 10.1517H84.805C84.9773 9.32614 85.3432 8.65799 85.8707 8.18721Z" fill="white"/>
<path d="M72.2174 17.8641L68.0962 4.7038H71.8354L74.5825 14.7634H74.684L77.4056 4.7038H81.1195L77.0237 17.8641H72.216H72.2174Z" fill="white"/>
</svg>
