<?xml version="1.0" encoding="UTF-8" standalone="no"?>
<svg width="551px" height="221px" viewBox="0 0 551 221" version="1.1" xmlns="http://www.w3.org/2000/svg" xmlns:xlink="http://www.w3.org/1999/xlink" xmlns:sketch="http://www.bohemiancoding.com/sketch/ns">
    <g stroke="none" stroke-width="1" fill="none" fill-rule="evenodd">
        <g fill="#189AE0">
            <path d="M113.975793,190 C158.145203,190 193.951585,154.18278 193.951585,110 C193.951585,65.81722 158.145203,30 113.975793,30 C69.806382,30 34,65.81722 34,110 C34,154.18278 69.806382,190 113.975793,190 Z M113.839127,145.524549 L111.430972,150.811171 L122.64335,155.352941 L125.051506,150.066319 C128.503654,142.487821 134.721706,135.359071 142.950624,128.852781 C147.723783,125.078828 152.864626,121.755599 158.004467,118.927214 C159.799807,117.939262 161.461557,117.086276 162.943805,116.372414 C163.809752,115.955367 164.406373,115.684419 164.687939,115.563318 L164.57975,105.04812 C164.304691,104.935844 163.715865,104.680817 162.858851,104.285221 C161.388956,103.606719 159.740304,102.791513 157.958654,101.842221 C152.856442,99.1236816 147.752873,95.895573 143.014747,92.1900001 C134.72425,85.7062029 128.493032,78.4891615 125.089233,70.6751402 L122.770875,65.3529412 L111.483043,69.7253523 L113.801401,75.0475513 C116.374734,80.9550926 120.121249,86.4508697 124.828755,91.5519327 L68.9312087,91.5519327 L68.9312087,103.059373 L134.371086,103.059373 L137.883573,103.059373 C142.43591,106.392191 144.949318,107.816565 149.709646,110.352943 C145.206767,112.830817 142.848867,114.285618 138.52173,117.443674 L134.371086,117.443674 L68.9312087,117.443674 L68.9312087,128.951114 L125.293108,128.951114 C120.4167,134.109251 116.524604,139.629124 113.839127,145.524549 Z"></path>
            <path d="M252.730388,88.7017241 L252.730388,88.7017241 L252.730388,147 L252.730388,148 L251.730388,148 L240.519181,148 L239.519181,148 L239.519181,147 L239.519181,88.7017241 L239.519181,87.7017241 L240.519181,87.7017241 L251.730388,87.7017241 L252.730388,87.7017241 L252.730388,88.7017241 Z M246.124784,53.1961207 L246.124784,53.1961207 C248.553406,53.1961207 250.63906,54.0730436 252.322545,55.8032916 C253.999393,57.5267185 254.84806,59.6248136 254.84806,62.0439655 C254.84806,64.3867001 253.994354,66.4261095 252.312926,68.1075378 C250.629428,69.7910352 248.547648,70.6426724 246.124784,70.6426724 C243.701921,70.6426724 241.620141,69.7910352 239.936643,68.1075378 C238.255215,66.4261095 237.401509,64.3867001 237.401509,62.0439655 C237.401509,59.6248136 238.250176,57.5267185 239.927024,55.8032916 C241.610509,54.0730436 243.696163,53.1961207 246.124784,53.1961207 L246.124784,53.1961207 Z M281.505819,88.7017241 L281.505819,88.7017241 L281.505819,96.0512931 L280.505819,96.0512931 L280.505819,95.0512931 L280.754957,95.0512931 L280.754957,96.0512931 L279.906959,95.5212942 C281.65093,92.7309406 283.98448,90.441008 286.897432,88.6584554 C289.834207,86.8613241 292.941591,85.9577586 296.201509,85.9577586 C303.794732,85.9577586 309.724096,89.6032194 313.883983,96.7963577 L312.152893,96.7959465 C314.068302,93.4875126 316.727694,90.8499186 320.117303,88.8943748 C323.507156,86.9386908 327.125705,85.9577586 330.95625,85.9577586 C344.447189,85.9577586 351.26444,94.8421752 351.26444,112.12069 L351.26444,147 L351.26444,148 L350.26444,148 L339.053233,148 L338.053233,148 L338.053233,147 L338.053233,113.989224 C338.053233,111.785147 337.951517,109.85254 337.749164,108.193253 C337.551637,106.57353 337.114683,104.865437 336.43608,103.069133 C335.803839,101.395556 334.817147,100.134783 333.463999,99.2570647 C332.101018,98.3729694 330.358456,97.9232759 328.215733,97.9232759 C326.060311,97.9232759 324.262776,98.3584686 322.806692,99.2171849 C321.318449,100.094866 320.189121,101.148907 319.405299,102.380625 C318.59733,103.650292 317.952603,105.271878 317.478637,107.246735 C316.992199,109.273563 316.689468,111.08995 316.569182,112.693755 C316.446613,114.328006 316.385129,116.213515 316.385129,118.349138 L316.385129,147 L316.385129,148 L315.385129,148 L304.173922,148 L303.173922,148 L303.173922,147 L303.173922,116.106897 C303.173922,114.133034 303.132899,112.492079 303.051301,111.186516 C302.971123,109.903667 302.748087,108.281587 302.381352,106.325668 C302.028146,104.441901 301.526086,102.974342 300.89004,101.926737 C300.267179,100.900848 299.316283,99.9685966 298.025068,99.1331046 C296.782987,98.3294053 295.269232,97.9232759 293.460991,97.9232759 C290.82966,97.9232759 288.681153,98.5126895 286.99015,99.6776024 C285.305235,100.838322 284.107262,102.485534 283.385321,104.651357 C282.61687,106.956712 282.113114,109.112786 281.872403,111.118714 C281.628409,113.151999 281.505819,115.562928 281.505819,118.349138 L281.505819,147 L281.505819,148 L280.505819,148 L269.294612,148 L268.294612,148 L268.294612,147 L268.294612,88.7017241 L268.294612,87.7017241 L269.294612,87.7017241 L280.505819,87.7017241 L281.505819,87.7017241 L281.505819,88.7017241 Z M393.365302,139.027586 C399.261596,139.027586 403.891362,136.99298 407.254741,132.923707 C410.61812,128.854434 412.299784,123.830202 412.299784,117.850862 C412.299784,111.954568 410.597359,106.992621 407.192457,102.964871 C403.787555,98.9371207 399.178549,96.9232759 393.365302,96.9232759 C387.801193,96.9232759 383.337517,98.9786432 379.974138,103.08944 C376.610759,107.200236 374.929095,112.120661 374.929095,117.850862 C374.929095,123.66411 376.589998,128.646818 379.911853,132.799138 C383.233709,136.951458 387.718147,139.027586 393.365302,139.027586 L393.365302,139.027586 L393.365302,139.027586 Z M376.55194,88.7017241 L376.55194,88.7017241 L376.55194,98.4181034 L375.55194,98.4181034 L375.55194,97.4181034 L375.801078,97.4181034 L375.801078,98.4181034 L374.967636,97.8654956 C380.21451,89.9521776 387.291579,85.9577586 396.105819,85.9577586 C404.536667,85.9577586 411.419753,89.0962728 416.677469,95.3451979 C421.897258,101.549045 424.510991,108.94034 424.510991,117.477155 C424.510991,126.503975 421.944674,134.181541 416.811515,140.469661 C411.633538,146.812683 404.537088,149.993103 395.607543,149.993103 C391.445593,149.993103 387.556639,148.950255 383.957996,146.869112 C380.380761,144.80035 377.384261,141.997868 374.975277,138.470427 L375.801078,137.906466 L375.801078,138.906466 L375.55194,138.906466 L375.55194,137.906466 L376.55194,137.906466 L376.55194,180.384483 L376.55194,181.384483 L375.55194,181.384483 L364.340733,181.384483 L363.340733,181.384483 L363.340733,180.384483 L363.340733,88.7017241 L363.340733,87.7017241 L364.340733,87.7017241 L375.55194,87.7017241 L376.55194,87.7017241 L376.55194,88.7017241 Z M447.182543,38.8741379 L447.182543,38.8741379 L447.182543,147 L447.182543,148 L446.182543,148 L434.971336,148 L433.971336,148 L433.971336,147 L433.971336,38.8741379 L433.971336,37.8741379 L434.971336,37.8741379 L446.182543,37.8741379 L447.182543,37.8741379 L447.182543,38.8741379 Z M478.566813,137.517441 L478.566813,137.517441 L451.909055,89.1846822 L451.091135,87.7017241 L452.784698,87.7017241 L465.86444,87.7017241 L466.465153,87.7017241 L466.747286,88.2320619 L486.429182,125.229045 L484.650106,125.255118 L502.961744,88.2581353 L503.237139,87.7017241 L503.857974,87.7017241 L516.43944,87.7017241 L518.079183,87.7017241 L517.328489,89.1595361 L470.116851,180.842295 L469.837653,181.384483 L469.227802,181.384483 L456.521767,181.384483 L454.861855,181.384483 L455.637732,179.917062 L478.558422,136.567062 L478.566813,137.517441 Z"></path>
        </g>
    </g>
</svg>