<?xml version="1.0" encoding="UTF-8" standalone="no"?>
<svg width="19px" height="19px" viewBox="0 0 19 19" version="1.1" xmlns="http://www.w3.org/2000/svg" xmlns:xlink="http://www.w3.org/1999/xlink" xmlns:sketch="http://www.bohemiancoding.com/sketch/ns">
    <!-- Generator: Sketch 3.4.2 (15855) - http://www.bohemiancoding.com/sketch -->
    <title>dim-string</title>
    <desc>Created with Sketch.</desc>
    <defs></defs>
    <g id="pivot" stroke="none" stroke-width="1" fill="none" fill-rule="evenodd" sketch:type="MSPage">
        <g id="dim-string" sketch:type="MSArtboardGroup" fill="#000000">
            <path d="M1,5 L6,5 L6,13 L1,13 L1,5 Z M2,6 L5,6 L5,8 L2,8 L2,6 Z M2,9 L5,9 L5,13 L2,13 L2,9 Z M7,5 L12,5 L12,13 L7,13 L7,5 Z M8,6 L11,6 L11,8 L8,8 L8,6 Z M8,9 L11,9 L11,12 L8,12 L8,9 Z M13,5 L18,5 L18,13 L13,13 L13,5 Z M14,6 L18,6 L18,12 L14,12 L14,6 Z" id="Rectangle-84" sketch:type="MSShapeGroup"></path>
        </g>
    </g>
</svg>