<?xml version="1.0" encoding="UTF-8" standalone="no"?>
<svg width="19px" height="19px" viewBox="0 0 19 19" version="1.1" xmlns="http://www.w3.org/2000/svg" xmlns:xlink="http://www.w3.org/1999/xlink" xmlns:sketch="http://www.bohemiancoding.com/sketch/ns">
    <!-- Generator: Sketch 3.4.2 (15855) - http://www.bohemiancoding.com/sketch -->
    <title>dim-geo</title>
    <desc>Created with Sketch.</desc>
    <defs></defs>
    <g id="pivot" stroke="none" stroke-width="1" fill="none" fill-rule="evenodd" sketch:type="MSPage">
        <g id="dim-geo" sketch:type="MSArtboardGroup" fill="#000000">
            <path d="M8,11 L8,8 L11,8 L11,11 L8,11 Z M8,12 L8,15.8260682 C8.48151935,15.9398113 8.98373076,16 9.5,16 C10.0162692,16 10.5184807,15.9398113 11,15.8260682 L11,12 L8,12 Z M15.8260682,11 C15.9398113,10.5184807 16,10.0162692 16,9.5 C16,8.98373076 15.9398113,8.48151935 15.8260682,8 L12,8 L12,11 L15.8260682,11 Z M15.5018367,12 C14.8432122,13.5793598 13.5793598,14.8432122 12,15.5018367 L12,12 L15.5018367,12 Z M3.17393184,11 C3.06018869,10.5184807 3,10.0162692 3,9.5 C3,8.98373076 3.06018869,8.48151935 3.17393184,8 L7,8 L7,11 L3.17393184,11 Z M3.49816335,12 C4.15678777,13.5793598 5.42064024,14.8432122 7,15.5018367 L7,12 L3.49816335,12 Z M8,7 L8,3.17393184 C8.48151935,3.06018869 8.98373076,3 9.5,3 C10.0162692,3 10.5184807,3.06018869 11,3.17393184 L11,7 L8,7 Z M15.5018367,7 C14.8432122,5.42064024 13.5793598,4.15678777 12,3.49816335 L12,7 L15.5018367,7 Z M3.49816335,7 C4.15678777,5.42064024 5.42064024,4.15678777 7,3.49816335 L7,7 L3.49816335,7 Z M9.5,17 C13.6421356,17 17,13.6421356 17,9.5 C17,5.35786438 13.6421356,2 9.5,2 C5.35786438,2 2,5.35786438 2,9.5 C2,13.6421356 5.35786438,17 9.5,17 Z" id="Rectangle-92-Copy-4" sketch:type="MSShapeGroup"></path>
        </g>
    </g>
</svg>