<?xml version="1.0" encoding="utf-8"?>
<!-- Generator: Adobe Illustrator 16.0.3, SVG Export Plug-In . SVG Version: 6.00 Build 0)  -->
<!DOCTYPE svg PUBLIC "-//W3C//DTD SVG 1.1//EN" "http://www.w3.org/Graphics/SVG/1.1/DTD/svg11.dtd">
<svg version="1.1" id="Layer_1" xmlns:sketch="http://www.bohemiancoding.com/sketch/ns"
	 xmlns="http://www.w3.org/2000/svg" xmlns:xlink="http://www.w3.org/1999/xlink" x="0px" y="0px" width="19px" height="19px"
	 viewBox="0 0 19 19" enable-background="new 0 0 19 19" xml:space="preserve">
<title>full-more-compact</title>
<desc>Created with Sketch.</desc>
<g>
	<g id="pivot" sketch:type="MSPage">
		<g id="full-more-compact" sketch:type="MSArtboardGroup">
			<path id="Oval-1" sketch:type="MSShapeGroup" fill="#BBBBBB" d="M8.322,4.359c0,0.65,0.527,1.178,1.178,1.178
				c0.65,0,1.178-0.527,1.178-1.178S10.15,3.182,9.5,3.182C8.85,3.182,8.322,3.709,8.322,4.359z M8.322,9.5
				c0,0.65,0.527,1.176,1.178,1.176c0.65,0,1.178-0.525,1.178-1.176c0-0.651-0.527-1.178-1.178-1.178
				C8.85,8.322,8.322,8.85,8.322,9.5z M8.322,14.641c0,0.65,0.527,1.178,1.178,1.178c0.65,0,1.178-0.526,1.178-1.178
				c0-0.65-0.527-1.178-1.178-1.178C8.85,13.463,8.322,13.99,8.322,14.641z"/>
		</g>
	</g>
	<title>full-more-compact</title>
	<desc>Created with Sketch.</desc>
</g>
</svg>
