<?xml version="1.0" encoding="UTF-8" standalone="no"?>
<svg width="19px" height="19px" viewBox="0 0 19 19" version="1.1" xmlns="http://www.w3.org/2000/svg" xmlns:xlink="http://www.w3.org/1999/xlink">
    <!-- Generator: Sketch 3.8.2 (29753) - http://www.bohemiancoding.com/sketch -->
    <title>filter-string</title>
    <desc>Created with Sketch.</desc>
    <defs></defs>
    <g id="pivot" stroke="none" stroke-width="1" fill="none" fill-rule="evenodd">
        <g id="filter-string" fill="#000000">
            <path d="M7.48549244,13.9023294 L7.14793625,13.0326931 L7.10216592,13.0326931 C6.80847149,13.4026718 6.50619962,13.6591738 6.19534123,13.8022068 C5.88448285,13.9452398 5.47922876,14.0167552 4.97956682,14.0167552 C4.36547847,14.0167552 3.88203418,13.841304 3.52921945,13.4903964 C3.17640472,13.1394888 3,12.6398343 3,11.9914181 C3,11.3124881 3.23743122,10.8118801 3.71230078,10.4895791 C4.18717034,10.1672781 4.90327814,9.98896625 5.86064569,9.95463833 L6.97057622,9.92031058 L6.97057622,9.63996731 C6.97057622,8.99155104 6.63874463,8.66734777 5.97507152,8.66734777 C5.46396693,8.66734777 4.86323734,8.8218211 4.17286473,9.13077237 L3.5950143,7.95218635 C4.33115747,7.56695081 5.14738688,7.37433592 6.04372701,7.37433592 C6.90192501,7.37433592 7.55986694,7.56122957 8.01757254,7.93502248 C8.47527814,8.30881538 8.7041275,8.87712464 8.7041275,9.63996731 L8.7041275,13.9023294 L7.48549244,13.9023294 Z M6.97057622,10.9387004 L6.29546383,10.9615856 C5.78817346,10.9768425 5.41057201,11.0683822 5.16264814,11.2362076 C4.91472427,11.404033 4.7907642,11.6595814 4.7907642,12.0028606 C4.7907642,12.4948942 5.07301175,12.7409072 5.63751532,12.7409072 C6.04182194,12.7409072 6.36507167,12.6245755 6.60727421,12.3919085 C6.84947676,12.1592414 6.97057622,11.8502948 6.97057622,11.4650593 L6.97057622,10.9387004 Z M14.0592562,7.3857785 C14.8144705,7.3857785 15.4056647,7.68042206 15.8328566,8.26971802 C16.2600485,8.85901398 16.4736412,9.66666154 16.4736412,10.6926849 C16.4736412,11.749222 16.2533737,12.5673585 15.812832,13.1471189 C15.3722904,13.7268793 14.7725144,14.0167552 14.0134859,14.0167552 C13.2620859,14.0167552 12.6727988,13.744043 12.2456069,13.1986105 L12.1254597,13.1986105 L11.8336739,13.9023294 L10.500613,13.9023294 L10.500613,5 L12.2456069,5 L12.2456069,7.07110748 C12.2456069,7.3342882 12.2227219,7.75575245 12.1769514,8.33551287 L12.2456069,8.33551287 C12.6537277,7.70235346 13.2582714,7.3857785 14.0592562,7.3857785 L14.0592562,7.3857785 Z M13.4985697,8.7817736 C13.0675636,8.7817736 12.7528957,8.91431553 12.5545566,9.17940335 C12.3562175,9.44449118 12.2532353,9.88216559 12.2456069,10.4924397 L12.2456069,10.6812423 C12.2456069,11.3678007 12.3476355,11.8598269 12.551696,12.1573355 C12.7557564,12.4548442 13.0790061,12.6035962 13.5214548,12.6035962 C13.8799909,12.6035962 14.1650991,12.438634 14.3767879,12.1087045 C14.5884767,11.7787751 14.6943196,11.299145 14.6943196,10.6697998 C14.6943196,10.0404546 14.5875232,9.56845274 14.3739273,9.25378014 C14.1603313,8.93910754 13.8685484,8.7817736 13.4985697,8.7817736 L13.4985697,8.7817736 Z" id="ab"></path>
        </g>
    </g>
</svg>