<?xml version="1.0" encoding="UTF-8" standalone="no"?>
<svg width="19px" height="19px" viewBox="0 0 19 19" version="1.1" xmlns="http://www.w3.org/2000/svg" xmlns:xlink="http://www.w3.org/1999/xlink" xmlns:sketch="http://www.bohemiancoding.com/sketch/ns">
    <!-- Generator: Sketch 3.4.2 (15855) - http://www.bohemiancoding.com/sketch -->
    <title>full-search</title>
    <desc>Created with Sketch.</desc>
    <defs></defs>
    <g id="pivot" stroke="none" stroke-width="1" fill="none" fill-rule="evenodd" sketch:type="MSPage">
        <g id="full-search" sketch:type="MSArtboardGroup" fill="#000000">
            <path d="M11.573151,9.94495162 C12.6161629,8.17894957 12.3789932,5.86619566 10.8616421,4.34884454 C9.06318273,2.55038515 6.14730393,2.55038515 4.34884454,4.34884454 C2.55038515,6.14730393 2.55038515,9.06318273 4.34884454,10.8616421 C5.86619566,12.3789932 8.17894957,12.6161629 9.94495162,11.573151 L13.8466743,15.4748737 L15.4748737,13.8466743 L11.573151,9.94495162 L11.573151,9.94495162 Z M9.58886079,9.58886079 C10.6843825,8.49333912 10.6843825,6.71714754 9.58886079,5.62162587 C8.49333912,4.5261042 6.71714754,4.5261042 5.62162587,5.62162587 C4.5261042,6.71714754 4.5261042,8.49333912 5.62162587,9.58886079 C6.71714754,10.6843825 8.49333912,10.6843825 9.58886079,9.58886079 L9.58886079,9.58886079 Z" id="Oval-5" sketch:type="MSShapeGroup"></path>
        </g>
    </g>
</svg>