<?xml version="1.0" encoding="UTF-8"?>
<svg width="19px" height="19px" viewBox="0 0 19 19" xmlns="http://www.w3.org/2000/svg">
    <clipPath id="a">
        <path d="m0 0h19v19h-19v-19z"/>
    </clipPath>
    <g clip-path="url(#a)">
        <path d="m0 0h19v19h-19z" fill-opacity="0" fill-rule="evenodd"/>
        <path d="m-0.5711-2.2403h12v12.378h-12z" fill-opacity="0" fill-rule="evenodd"/>
        <path d="m1.6661 4.0274h2.6719v-2.9531h2.1719v2.9531h2.6719v2h-2.6719v2.9687h-2.1719v-2.9687h-2.6719v-2z"/>
        <path d="m6.9119 1.2953h12v12.378h-12z" fill-opacity="0" fill-rule="evenodd"/>
        <path d="m10.605 4.252h7.5156v2h-7.5156v-2z"/>
        <path d="m8.1418 6.842h12v12.378h-12z" fill-opacity="0" fill-rule="evenodd"/>
        <path d="m15.52 10.875q0 0.67188-0.42188 1.0156-0.40625 0.32812-0.9375 0.32812t-0.95312-0.32812q-0.40625-0.34375-0.40625-1.0156t0.40625-1q0.42188-0.34375 0.95312-0.34375t0.9375 0.34375q0.42188 0.32812 0.42188 1zm0 6.4844q0 0.67188-0.42188 1.0156-0.40625 0.32812-0.9375 0.32812t-0.95312-0.32812q-0.40625-0.34375-0.40625-1.0156t0.40625-1q0.42188-0.34375 0.95312-0.34375t0.9375 0.34375q0.42188 0.32812 0.42188 1zm-5.1406-4.25h7.5156v2h-7.5156v-2z"/>
        <path d="m-0.59306 6.7978h12v12.378h-12z" fill-opacity="0" fill-rule="evenodd"/>
        <path d="m7.5817 10.487l1.3906 1.4062-2.1719 2.1719 2.1719 2.1562-1.3906 1.3906-2.1719-2.1719-2.1562 2.1719-1.4062-1.3906 2.1875-2.1562-2.1875-2.1719 1.4062-1.4062 2.1562 2.1875 2.1719-2.1875z"/>
    </g>
</svg>
