<?xml version="1.0" encoding="UTF-8" standalone="no"?>
<svg width="19px" height="19px" viewBox="0 0 19 19" version="1.1" xmlns="http://www.w3.org/2000/svg" xmlns:xlink="http://www.w3.org/1999/xlink">
    <!-- Generator: Sketch 3.8.2 (29753) - http://www.bohemiancoding.com/sketch -->
    <title>cluster</title>
    <desc>Created with Sketch.</desc>
    <defs></defs>
    <g id="pivot" stroke="none" stroke-width="1" fill="none" fill-rule="evenodd">
        <g id="cluster" fill="#000000">
            <path d="M3,2 L16,2 L16,6 L3,6 L3,2 Z M4,3 L6,3 L6,5 L4,5 L4,3 Z M3,7 L16,7 L16,11 L3,11 L3,7 Z M4,8 L6,8 L6,10 L4,10 L4,8 Z M3,12 L16,12 L16,16 L3,16 L3,12 Z M4,13 L6,13 L6,15 L4,15 L4,13 Z" id="Combined-Shape"></path>
        </g>
    </g>
</svg>