<?xml version="1.0" encoding="UTF-8"?>
<svg width="19px" height="19px" viewBox="0 0 19 19" version="1.1" xmlns="http://www.w3.org/2000/svg">
    <clipPath id="a">
        <path d="m0 0h19v19h-19v-19z"/>
    </clipPath>
    <g clip-path="url(#a)" fill="#000">
        <path d="m0 0h19v19h-19z" fill-opacity="0" fill-rule="evenodd"/>
        <path d="m-9.1864e-6 4.1995e-6h18.992v18.992h-18.992z" fill-opacity="0" fill-rule="evenodd"/>
        <path d="m8.445 7.0592q0 1.4531-0.75 2.2344-0.73438 0.78125-1.9375 0.78125-0.59375 0-1.0938-0.20312-0.48438-0.20312-0.84375-0.57812-0.34375-0.39062-0.54688-0.95312-0.20312-0.5625-0.20312-1.2812 0-1.4844 0.73438-2.25 0.75-0.78125 1.9531-0.78125 1.2031 0 1.9375 0.78125 0.75 0.76562 0.75 2.25zm-1.5156 0q0-0.85938-0.3125-1.2812t-0.85938-0.42188-0.85938 0.42188q-0.29688 0.42188-0.29688 1.2812 0 0.84375 0.29688 1.2656 0.3125 0.42188 0.85938 0.42188t0.85938-0.42188q0.3125-0.42187 0.3125-1.2656zm4.7656-2.7969h1.8438l-6.2656 11.094h-1.8281l6.25-11.094zm4.2188 8.3281q0 1.4531-0.75 2.2344-0.73438 0.78125-1.9375 0.78125-0.59375 0-1.0938-0.20312-0.48438-0.1875-0.84375-0.5625-0.34375-0.39062-0.54688-0.95312-0.20312-0.57812-0.20312-1.2969 0-1.4688 0.75-2.25t1.9375-0.78125q1.2031 0 1.9375 0.78125 0.75 0.78125 0.75 2.25zm-1.5156 0q0-0.84375-0.3125-1.2656-0.3125-0.4375-0.85938-0.4375-0.53125 0-0.84375 0.4375-0.29688 0.42188-0.29688 1.2656t0.29688 1.2656q0.3125 0.42188 0.84375 0.42188 0.54688 0 0.85938-0.42188t0.3125-1.2656z"/>
    </g>
</svg>
