<?xml version="1.0" encoding="UTF-8" standalone="no"?>
<svg width="19px" height="19px" viewBox="0 0 19 19" version="1.1" xmlns="http://www.w3.org/2000/svg" xmlns:xlink="http://www.w3.org/1999/xlink" xmlns:sketch="http://www.bohemiancoding.com/sketch/ns">
    <!-- Generator: Sketch 3.4.2 (15855) - http://www.bohemiancoding.com/sketch -->
    <title>full-settings</title>
    <desc>Created with Sketch.</desc>
    <defs></defs>
    <g id="pivot" stroke="none" stroke-width="1" fill="none" fill-rule="evenodd" sketch:type="MSPage">
        <g id="full-settings" sketch:type="MSArtboardGroup" fill="#000000">
            <path d="M11.2655592,4.10711325 L11.2655592,2.50960722 C11.2655592,2.22967656 11.0408396,2 10.7636338,2 L8.26426899,2 C7.99219937,2 7.76234361,2.22815893 7.76234361,2.50960722 L7.76234361,4.0830779 C6.87594438,4.32573356 6.07441683,4.75233984 5.40897527,5.31532621 L3.97934501,4.48992879 C3.73691795,4.34996346 3.42565238,4.42973811 3.28704952,4.66980531 L2.03736709,6.83431877 C1.90133228,7.06993797 1.98399583,7.38307836 2.2277372,7.52380251 L3.56687401,8.29695351 C3.48158594,8.67226613 3.43672676,9.06142581 3.43672676,9.46031746 C3.43672676,9.88549356 3.48769259,10.2996129 3.5842592,10.6976921 L2.2277372,11.4808804 C1.98531014,11.6208458 1.89876422,11.930297 2.03736709,12.1703642 L3.28704952,14.3348776 C3.42308433,14.5704968 3.73560364,14.6554783 3.97934501,14.5147541 L5.46848883,13.6549966 C6.12199413,14.1934165 6.90221075,14.6020919 7.76234361,14.837557 L7.76234361,16.4903928 C7.76234361,16.7703234 7.98706326,17 8.26426899,17 L10.7636338,17 C11.0357035,17 11.2655592,16.7718411 11.2655592,16.4903928 L11.2655592,14.8135217 C12.1022685,14.5718158 12.860914,14.1655262 13.4976051,13.6354209 L15.020655,14.5147541 C15.2630821,14.6547195 15.5743476,14.5749448 15.7129505,14.3348776 L16.9626329,12.1703642 C17.0986677,11.934745 17.0160042,11.6216046 16.7722628,11.4808804 L15.3651906,10.6685069 C15.4572242,10.2793853 15.5057318,9.87511315 15.5057318,9.46031746 C15.5057318,9.07183642 15.4631836,8.692586 15.3821796,8.32636742 L16.7722628,7.52380251 C17.0146899,7.38383718 17.1012358,7.07438598 16.9626329,6.83431877 L15.7129505,4.66980531 C15.5769157,4.43418611 15.2643964,4.34920464 15.020655,4.48992879 L13.5567508,5.33511429 C12.9081044,4.78058166 12.1283334,4.35634869 11.2655592,4.10711325 Z M9.46953234,12.1790429 C11.065377,12.1790429 12.3590648,10.9614716 12.3590648,9.45952134 C12.3590648,7.95757105 11.065377,6.73999977 9.46953234,6.73999977 C7.87368765,6.73999977 6.57999992,7.95757105 6.57999992,9.45952134 C6.57999992,10.9614716 7.87368765,12.1790429 9.46953234,12.1790429 Z" id="Rectangle-21-Copy-7" sketch:type="MSShapeGroup"></path>
        </g>
    </g>
</svg>