<?xml version="1.0" encoding="UTF-8" standalone="no"?>
<svg width="19px" height="19px" viewBox="0 0 19 19" version="1.1" xmlns="http://www.w3.org/2000/svg" xmlns:xlink="http://www.w3.org/1999/xlink" xmlns:sketch="http://www.bohemiancoding.com/sketch/ns">
    <!-- Generator: Sketch 3.4.2 (15855) - http://www.bohemiancoding.com/sketch -->
    <title>full-more</title>
    <desc>Created with Sketch.</desc>
    <defs></defs>
    <g id="pivot" stroke="none" stroke-width="1" fill="none" fill-rule="evenodd" sketch:type="MSPage">
        <g id="full-more" sketch:type="MSArtboardGroup" fill="#000000">
            <path d="M4.5,11 C5.32842712,11 6,10.3284271 6,9.5 C6,8.67157288 5.32842712,8 4.5,8 C3.67157288,8 3,8.67157288 3,9.5 C3,10.3284271 3.67157288,11 4.5,11 Z M9.5,11 C10.3284271,11 11,10.3284271 11,9.5 C11,8.67157288 10.3284271,8 9.5,8 C8.67157288,8 8,8.67157288 8,9.5 C8,10.3284271 8.67157288,11 9.5,11 Z M14.5,11 C15.3284271,11 16,10.3284271 16,9.5 C16,8.67157288 15.3284271,8 14.5,8 C13.6715729,8 13,8.67157288 13,9.5 C13,10.3284271 13.6715729,11 14.5,11 Z" id="Oval-1" sketch:type="MSShapeGroup"></path>
        </g>
    </g>
</svg>