<?xml version="1.0" encoding="UTF-8" standalone="no"?>
<svg width="19px" height="19px" viewBox="0 0 19 19" version="1.1" xmlns="http://www.w3.org/2000/svg" xmlns:xlink="http://www.w3.org/1999/xlink" xmlns:sketch="http://www.bohemiancoding.com/sketch/ns">
    <!-- Generator: Sketch 3.4.2 (15855) - http://www.bohemiancoding.com/sketch -->
    <title>full-share</title>
    <desc>Created with Sketch.</desc>
    <defs></defs>
    <g id="pivot" stroke="none" stroke-width="1" fill="none" fill-rule="evenodd" sketch:type="MSPage">
        <g id="full-share" sketch:type="MSArtboardGroup" fill="#000000">
            <path d="M11.1124797,12.1748132 L7.63210582,10.0583113 C7.67129453,9.8847821 7.7026455,9.71125292 7.7026455,9.53017899 C7.7026455,9.34910506 7.67129453,9.17557587 7.63210582,9.00204669 L11.0497778,6.91572377 C11.4730159,7.29296113 12.0294956,7.52684829 12.6486772,7.52684829 C13.9497425,7.52684829 15,6.51585217 15,5.26342414 C15,4.01099612 13.9497425,3 12.6486772,3 C11.347612,3 10.2973545,4.01099612 10.2973545,5.26342414 C10.2973545,5.44449808 10.3287055,5.61802726 10.3678942,5.79155644 L6.95022222,7.87787936 C6.52698413,7.50064201 5.97050441,7.26675484 5.35132275,7.26675484 C4.0502575,7.26675484 3,8.27775096 3,9.53017899 C3,10.782607 4.0502575,11.7936031 5.35132275,11.7936031 C5.97050441,11.7936031 6.52698413,11.559716 6.95022222,11.1824786 L10.4227584,13.3065253 C10.3835697,13.464965 10.3600564,13.6309494 10.3600564,13.7969338 C10.3600564,15.0116381 11.3868007,16 12.6486772,16 C13.9105538,16 14.9372981,15.0116381 14.9372981,13.7969338 C14.9372981,12.5822295 13.9105538,11.5938677 12.6486772,11.5938677 C12.0530088,11.5938677 11.5200423,11.8202101 11.1124797,12.1748132 Z" id="Shape" sketch:type="MSShapeGroup"></path>
        </g>
    </g>
</svg>