<?xml version="1.0" encoding="utf-8"?>
<!-- Generator: Adobe Illustrator 16.0.3, SVG Export Plug-In . SVG Version: 6.00 Build 0)  -->
<!DOCTYPE svg PUBLIC "-//W3C//DTD SVG 1.1//EN" "http://www.w3.org/Graphics/SVG/1.1/DTD/svg11.dtd">
<svg version="1.1" id="Layer_1" xmlns:sketch="http://www.bohemiancoding.com/sketch/ns"
	 xmlns="http://www.w3.org/2000/svg" xmlns:xlink="http://www.w3.org/1999/xlink" x="0px" y="0px" width="19px" height="19px"
	 viewBox="0 0 19 19" enable-background="new 0 0 19 19" xml:space="preserve">
<title>full-more-compact</title>
<desc>Created with Sketch.</desc>
<g id="pivot" sketch:type="MSPage">
	<g id="full-more-compact" sketch:type="MSArtboardGroup">
		<path id="Oval-1" sketch:type="MSShapeGroup" d="M5.5,11C6.329,11,7,10.328,7,9.5C7,8.671,6.329,8,5.5,8S4,8.671,4,9.5
			C4,10.328,4.671,11,5.5,11z M9.5,11c0.828,0,1.5-0.672,1.5-1.5C11,8.671,10.328,8,9.5,8C8.671,8,8,8.671,8,9.5
			C8,10.328,8.671,11,9.5,11z M13.5,11c0.828,0,1.5-0.672,1.5-1.5C15,8.671,14.328,8,13.5,8S12,8.671,12,9.5
			C12,10.328,12.672,11,13.5,11z"/>
	</g>
</g>
</svg>
