<?xml version="1.0" encoding="UTF-8" standalone="no"?>
<svg width="24px" height="24px" viewBox="0 0 24 24" version="1.1" xmlns="http://www.w3.org/2000/svg" xmlns:xlink="http://www.w3.org/1999/xlink" xmlns:sketch="http://www.bohemiancoding.com/sketch/ns">
    <g stroke="none" stroke-width="1" fill="none" fill-rule="evenodd">
        <path d="M12,2 C6.48,2 2,6.48 2,12 C2,17.52 6.48,22 12,22 C17.52,22 22,17.52 22,12 C22,6.48 17.52,2 12,2 Z M17.6560732,17.6550189 C16.9209142,18.3901407 16.0653619,18.9671065 15.1130037,19.3699185 C14.8711007,19.4722306 14.62544,19.562042 14.3763194,19.6395016 L14.3763194,18.2120804 C14.3763194,17.4617793 14.1190137,16.9099264 13.6043281,16.5564847 C13.9268158,16.5254934 14.2228512,16.4820759 14.4925831,16.4262693 C14.762315,16.3704627 15.0475983,16.2898407 15.3482843,16.1844407 C15.6490447,16.0790406 15.9187765,15.9534758 16.15748,15.8077461 C16.3962578,15.6620165 16.6256601,15.4729065 16.8457614,15.240379 C17.065937,15.0078515 17.2503592,14.7443328 17.3991768,14.4497856 C17.5479944,14.1552383 17.6658579,13.8017965 17.7526186,13.3894602 C17.8394536,12.9771238 17.882834,12.5228953 17.882834,12.0268491 C17.882834,11.0657478 17.5697218,10.2472511 16.9434229,9.57135875 C17.2287062,8.82727077 17.1976778,8.01807509 16.8504119,7.14377171 L16.6178844,7.11586841 C16.456715,7.09726621 16.1667811,7.16546188 15.7482316,7.32049261 C15.3296821,7.47552334 14.8599766,7.729741 14.339115,8.08318279 C13.6012773,7.87855859 12.835462,7.7762465 12.0417805,7.7762465 C11.241886,7.7762465 10.4791958,7.87855859 9.75371,8.08318279 C9.42508355,7.85995639 9.11349671,7.67549698 8.81894948,7.52976735 C8.52440225,7.38403772 8.28878679,7.28485079 8.1120659,7.23213216 C7.935345,7.17941353 7.77101317,7.14685968 7.61910761,7.13447061 C7.46720205,7.12208155 7.3695405,7.11895638 7.32612297,7.12516951 C7.28270544,7.13138265 7.25171417,7.13755858 7.23311197,7.14377171 C6.88588332,8.02428822 6.85485485,8.8334839 7.14010097,9.57135875 C6.51383933,10.2472511 6.2006899,11.0657478 6.2006899,12.0268491 C6.2006899,12.5228953 6.24410743,12.9771238 6.3309053,13.3894602 C6.41770316,13.8017965 6.53552949,14.1552383 6.68434709,14.4497856 C6.83316468,14.7443328 7.01762409,15.0078515 7.23776252,15.240379 C7.45790095,15.4729065 7.68730327,15.6620165 7.9260439,15.8077461 C8.16478453,15.9534758 8.43451642,16.0790406 8.73523958,16.1844407 C9.03596274,16.2898407 9.32120886,16.3704627 9.59094076,16.4262693 C9.86067265,16.4820759 10.1567453,16.5254934 10.4791958,16.5564847 C9.97072326,16.9037133 9.7165056,17.4556034 9.7165056,18.2120804 L9.7165056,19.6673305 C9.4356496,19.5837322 9.15881166,19.4849545 8.88684751,19.3699185 C7.93452651,18.9671065 7.07893694,18.3901407 6.34381522,17.6550189 C5.60873071,16.9199344 5.03172768,16.0643077 4.62895286,15.1119495 C4.212338,14.1268514 4.00105422,13.0794731 4.00105422,11.9989458 C4.00105422,10.9184184 4.212338,9.87104018 4.62902727,8.8858677 C5.0318393,7.9335467 5.60880512,7.07795713 6.34388963,6.34283541 C7.07897415,5.60771369 7.93460091,5.03074787 8.88692192,4.62797305 C9.8720944,4.21128378 10.9194726,4 12,4 C13.0805274,4 14.1279056,4.21128378 15.1131153,4.62797305 C16.0654735,5.03078508 16.9210259,5.6077509 17.6561848,6.34283541 C18.3912693,7.07791993 18.9682351,7.9335467 19.3710099,8.8858677 C19.7876248,9.87104018 19.9989458,10.9184184 19.9989458,11.9989458 C19.9989458,13.0794731 19.7876248,14.1268514 19.3709727,15.1120239 C18.9681979,16.0643077 18.3911577,16.9199716 17.6560732,17.6550189 Z" fill="#FFFFFF"></path>
    </g>
</svg>
