<?xml version="1.0" encoding="UTF-8" standalone="no"?>
<svg width="11px" height="11px" viewBox="0 0 11 11" version="1.1" xmlns="http://www.w3.org/2000/svg" xmlns:xlink="http://www.w3.org/1999/xlink" xmlns:sketch="http://www.bohemiancoding.com/sketch/ns">
    <g stroke="none" stroke-width="1" fill="none" fill-rule="evenodd">
        <g transform="translate(-122.000000, -9.000000)" fill="#BBBBBB">
            <path d="M129.72381,14.8566475 C130.599604,13.3737749 130.400458,11.4318069 129.126372,10.157721 C127.616246,8.64759469 125.167847,8.64759469 123.657721,10.157721 C122.147595,11.6678473 122.147595,14.1162458 123.657721,15.6263721 C124.931807,16.9004581 126.873775,17.0996041 128.356648,16.2238103 L131.632837,19.5 L133,18.1328372 L129.72381,14.8566475 L129.72381,14.8566475 Z M128.057646,14.557646 C128.977531,13.6377608 128.977531,12.1463323 128.057646,11.2264471 C127.137761,10.306562 125.646332,10.306562 124.726447,11.2264471 C123.806562,12.1463323 123.806562,13.6377608 124.726447,14.557646 C125.646332,15.4775311 127.137761,15.4775311 128.057646,14.557646 L128.057646,14.557646 Z"></path>
        </g>
    </g>
</svg>
