<?xml version="1.0" encoding="UTF-8" standalone="no"?>
<svg width="191px" height="69px" viewBox="0 0 191 69" version="1.1" xmlns="http://www.w3.org/2000/svg" xmlns:xlink="http://www.w3.org/1999/xlink" xmlns:sketch="http://www.bohemiancoding.com/sketch/ns">
    <!-- Generator: Sketch 3.4.2 (15855) - http://www.bohemiancoding.com/sketch -->
    <title>pivot-logo</title>
    <desc>Created with Sketch.</desc>
    <defs></defs>
    <g id="logos" stroke="none" stroke-width="1" fill="none" fill-rule="evenodd" sketch:type="MSPage">
        <g id="pivot-logo" sketch:type="MSArtboardGroup">
            <g id="Group" sketch:type="MSLayerGroup">
                <path d="M32,33.6000004 L64,51.0310003 L32,68.4620002 L0,51.0310003 L32,33.6000004 L32,33.6000004 Z" id="Rectangle-20" fill="#BE8BDE" sketch:type="MSShapeGroup"></path>
                <path d="M64,51.0310003 L32,68.4620002 L0,51.0310003 L32,33.6000004 L64,51.0310003 Z M32.0432389,37.327641 L57.1999998,51.0310003 L32.0432389,64.7343596 L6.886478,51.0310003 L32.0432389,37.327641 Z" id="Shape" fill="#888888" sketch:type="MSShapeGroup"></path>
                <path d="M2.58248331,19.4377255 L2.13382541,48.4568149 L31.3212052,64.3824016 L31.9578584,45.2026033 L33.227274,64.2280781 L61.6527653,48.707742 L61.6527654,19.3095811 L64,18.0309984 L32,0.599998474 L0,18.0309984 L2.58248331,19.4377255 Z" id="Path-63" fill="#E8E8E8" sketch:type="MSShapeGroup"></path>
                <path d="M0,18.0309984 L32,35.4619983 L64,18.0309984 L32,0.599998474 L0,18.0309984 Z M31.9567611,4.3276391 L6.80000019,18.0309984 L31.9567611,31.7343577 L57.113522,18.0309984 L31.9567611,4.3276391 Z" id="Shape" fill="#888888" sketch:type="MSShapeGroup"></path>
                <path d="M14.4407777,11.6400614 L13.5836349,13.1246763 L42.023725,29.54457 L42.8808678,28.059955 L14.4407777,11.6400614 Z" id="Rectangle-20" opacity="0.5" fill="#888888" sketch:type="MSShapeGroup"></path>
                <path d="M48.9767762,7.21000004 L50.4001775,8.36768558 L23.1390484,24.1069058 L22.2819055,22.6222908 L48.9767762,7.21000004 Z" id="Rectangle-20" opacity="0.400000006" fill="#888888" sketch:type="MSShapeGroup" transform="translate(36.341042, 15.658453) scale(-1, 1) translate(-36.341042, -15.658453) "></path>
                <rect id="Rectangle-39" fill="#888888" sketch:type="MSShapeGroup" x="30" y="33" width="4" height="33"></rect>
                <rect id="Rectangle-39" fill="#888888" sketch:type="MSShapeGroup" x="0" y="18" width="4" height="33"></rect>
                <rect id="Rectangle-39" fill="#888888" sketch:type="MSShapeGroup" x="60" y="18" width="4" height="33"></rect>
                <rect id="Rectangle-42" opacity="0.5" fill="#888888" sketch:type="MSShapeGroup" x="11" y="24" width="1.79999995" height="32"></rect>
                <path d="M61.5228839,28.1965524 L62.3539861,29.6959005 L33.631661,45.6169453 L32.8005588,44.1175972 L61.5228839,28.1965524 Z" id="Rectangle-20" opacity="0.5" fill="#888888" sketch:type="MSShapeGroup"></path>
                <rect id="Rectangle-42" opacity="0.5" fill="#888888" sketch:type="MSShapeGroup" x="20" y="27" width="1.79999995" height="32"></rect>
                <path d="M61.5228839,38.1965524 L62.3539861,39.6959005 L33.631661,55.6169453 L32.8005588,54.1175972 L61.5228839,38.1965524 Z" id="Rectangle-20" opacity="0.5" fill="#888888" sketch:type="MSShapeGroup"></path>
            </g>
            <path d="M106.530784,28.7154738 C106.530784,31.8915565 105.490598,34.3255922 103.410194,36.0176537 C101.329791,37.7097153 98.3687272,38.5557334 94.5269153,38.5557334 L91.3647177,38.5557334 L91.3647177,49.9354839 L86.3925781,49.9354839 L86.3925781,19.5201361 L95.1510333,19.5201361 C98.9512371,19.5201361 101.79788,20.2968084 103.691047,21.8501764 C105.584214,23.4035444 106.530784,25.691954 106.530784,28.7154738 L106.530784,28.7154738 Z M91.3647177,34.3741431 L94.006817,34.3741431 C96.5587787,34.3741431 98.4311138,33.9303304 99.6238785,33.0426915 C100.816643,32.1550527 101.413017,30.7681378 101.413017,28.8819052 C101.413017,27.1343663 100.879054,25.8306663 99.8111139,24.9707661 C98.7431734,24.110866 97.0788756,23.6809224 94.8181704,23.6809224 L91.3647177,23.6809224 L91.3647177,34.3741431 Z M116.974357,49.9354839 L112.085433,49.9354839 L112.085433,26.9263357 L116.974357,26.9263357 L116.974357,49.9354839 Z M111.794178,20.8307838 C111.794178,19.9570143 112.033421,19.2843606 112.511914,18.8128024 C112.990407,18.3412443 113.673462,18.1054688 114.561101,18.1054688 C115.421001,18.1054688 116.090188,18.3412443 116.568681,18.8128024 C117.047174,19.2843606 117.286416,19.9570143 117.286416,20.8307838 C117.286416,21.6629452 117.047174,22.3182625 116.568681,22.7967553 C116.090188,23.2752481 115.421001,23.5144909 114.561101,23.5144909 C113.673462,23.5144909 112.990407,23.2752481 112.511914,22.7967553 C112.033421,22.3182625 111.794178,21.6629452 111.794178,20.8307838 L111.794178,20.8307838 Z M129.207069,49.9354839 L120.469418,26.9263357 L125.628793,26.9263357 L130.309677,40.3032636 C131.1141,42.5500994 131.59952,44.366958 131.765953,45.7538936 L131.932384,45.7538936 C132.057208,44.7552999 132.542628,42.9384414 133.388659,40.3032636 L138.069544,26.9263357 L143.270527,26.9263357 L134.491268,49.9354839 L129.207069,49.9354839 Z M167.174244,38.3893019 C167.174244,42.1478977 166.210338,45.0812227 164.282497,47.1893649 C162.354657,49.2975072 159.670977,50.3515625 156.231376,50.3515625 C154.081626,50.3515625 152.181552,49.8661423 150.531099,48.8952873 C148.880645,47.9244323 147.611618,46.5305828 146.723979,44.7136971 C145.83634,42.8968113 145.392528,40.7887007 145.392528,38.3893019 C145.392528,34.6584449 146.349499,31.7459236 148.26347,29.6516507 C150.177442,27.5573778 152.874991,26.5102571 156.3562,26.5102571 C159.684845,26.5102571 162.319984,27.5816488 164.261694,29.7244645 C166.203404,31.8672801 167.174244,34.7555304 167.174244,38.3893019 L167.174244,38.3893019 Z M150.427079,38.3893019 C150.427079,43.7012656 152.389564,46.3572077 156.314592,46.3572077 C160.198012,46.3572077 162.139693,43.7012656 162.139693,38.3893019 C162.139693,33.1328156 160.184143,30.5046119 156.272984,30.5046119 C154.220319,30.5046119 152.732853,31.1842002 151.810541,32.5433972 C150.888228,33.9025942 150.427079,35.8512096 150.427079,38.3893019 L150.427079,38.3893019 Z M181.362525,46.3988155 C182.55529,46.3988155 183.748037,46.211582 184.940801,45.8371094 L184.940801,49.5194052 C184.399896,49.7551843 183.702972,49.9528197 182.850006,50.1123173 C181.997041,50.2718149 181.112883,50.3515625 180.197505,50.3515625 C175.56514,50.3515625 173.248992,47.9105923 173.248992,43.0285786 L173.248992,30.6294355 L170.107598,30.6294355 L170.107598,28.4658266 L173.477835,26.6766885 L175.14215,21.8085685 L178.15872,21.8085685 L178.15872,26.9263357 L184.711958,26.9263357 L184.711958,30.6294355 L178.15872,30.6294355 L178.15872,42.9453629 C178.15872,44.1242582 178.453439,44.9945473 179.042887,45.5562563 C179.632335,46.1179653 180.40554,46.3988155 181.362525,46.3988155 L181.362525,46.3988155 Z" id="Pivot" fill="#777777" sketch:type="MSShapeGroup"></path>
        </g>
    </g>
</svg>