<?xml version="1.0" encoding="UTF-8" standalone="no"?>
<svg width="43px" height="43px" viewBox="0 0 43 43" version="1.1" xmlns="http://www.w3.org/2000/svg" xmlns:xlink="http://www.w3.org/1999/xlink" xmlns:sketch="http://www.bohemiancoding.com/sketch/ns">
    <g stroke="none" stroke-width="1" fill="none" fill-rule="evenodd">
        <path d="M8.13388348,38.1338835 L15.8513979,30.4163691 L12.5836309,27.1486021 L4.86611652,34.8661165 L0,30 L0,43 L13,43 L8.13388348,38.1338835 L8.13388348,38.1338835 Z M38.1338835,34.8661165 L30.4163691,27.1486021 L27.1486021,30.4163691 L34.8661165,38.1338835 L30,43 L43,43 L43,30 L38.1338835,34.8661165 L38.1338835,34.8661165 L38.1338835,34.8661165 Z M38.1338835,8.13388348 L30.4163691,15.8513979 L27.1486021,12.5836309 L34.8661165,4.86611652 L30,0 L43,0 L43,13 L38.1338835,8.13388348 L38.1338835,8.13388348 Z M8.13388348,4.86611652 L15.8513979,12.5836309 L12.5836309,15.8513979 L4.86611652,8.13388348 L0,13 L0,0 L13,0 L8.13388348,4.86611652 L8.13388348,4.86611652 Z" fill="#888888"></path>
    </g>
</svg>