<?xml version="1.0" encoding="UTF-8" standalone="no"?>
<svg width="53px" height="53px" viewBox="0 0 53 53" version="1.1" xmlns="http://www.w3.org/2000/svg" xmlns:xlink="http://www.w3.org/1999/xlink" xmlns:sketch="http://www.bohemiancoding.com/sketch/ns">
    <!-- Generator: Sketch 3.4.2 (15855) - http://www.bohemiancoding.com/sketch -->
    <title>vis-totals</title>
    <desc>Created with Sketch.</desc>
    <defs></defs>
    <g id="pivot" stroke="none" stroke-width="1" fill="none" fill-rule="evenodd" sketch:type="MSPage">
        <g id="vis-totals" sketch:type="MSArtboardGroup">
            <g id="Rectangle-1-Copy-6-+-Line-Chart-+-Path-11-Copy-+-Path-11-Copy-Copy-Copy-Copy" sketch:type="MSLayerGroup" transform="translate(6.000000, 12.000000)">
                <path d="M0,0 L41,0 L41,29 L0,29 L0,0 Z M1,1 L40,1 L40,28 L1,28 L1,1 Z" id="Shape" fill="#AAAAAA" sketch:type="MSShapeGroup"></path>
                <path d="M14.3205566,20 L12.8288574,20 L12.8288574,14.0078125 C12.8288574,13.2926397 12.8457843,12.725588 12.8796387,12.3066406 C12.7823075,12.4082036 12.6627611,12.5203444 12.5209961,12.6430664 C12.3792311,12.7657884 11.9042195,13.1551074 11.0959473,13.8110352 L10.3469238,12.8652344 L13.076416,10.7197266 L14.3205566,10.7197266 L14.3205566,20 Z M23.6516113,20 L17.361084,20 L17.361084,18.8701172 L19.7541504,16.4643555 C20.4608597,15.740719 20.9295236,15.227622 21.1601562,14.9250488 C21.3907889,14.6224757 21.5590001,14.337892 21.6647949,14.0712891 C21.7705897,13.8046862 21.8234863,13.5190445 21.8234863,13.2143555 C21.8234863,12.7954081 21.6975924,12.4653332 21.4458008,12.2241211 C21.1940092,11.982909 20.8459495,11.8623047 20.4016113,11.8623047 C20.0461408,11.8623047 19.7023129,11.9278965 19.3701172,12.059082 C19.0379215,12.1902676 18.6538922,12.4272444 18.2180176,12.7700195 L17.4118652,11.7861328 C17.9281439,11.3502582 18.4296037,11.0413421 18.9162598,10.859375 C19.4029158,10.6774079 19.9213026,10.5864258 20.4714355,10.5864258 C21.3347211,10.5864258 22.0266087,10.8117653 22.5471191,11.2624512 C23.0676296,11.713137 23.3278809,12.3193321 23.3278809,13.0810547 C23.3278809,13.5000021 23.2527677,13.8977846 23.1025391,14.2744141 C22.9523104,14.6510435 22.7216812,15.0393046 22.4106445,15.439209 C22.0996078,15.8391133 21.582279,16.3797166 20.8586426,17.0610352 L19.2463379,18.6225586 L19.2463379,18.6860352 L23.6516113,18.6860352 L23.6516113,20 Z M30.7229004,12.8525391 C30.7229004,13.4407581 30.5515154,13.9305807 30.2087402,14.3220215 C29.8659651,14.7134622 29.383548,14.9768873 28.7614746,15.1123047 L28.7614746,15.1630859 C29.50627,15.2561854 30.0648582,15.4878725 30.4372559,15.8581543 C30.8096536,16.2284361 30.9958496,16.7203745 30.9958496,17.3339844 C30.9958496,18.2268925 30.6805858,18.9156063 30.0500488,19.4001465 C29.4195118,19.8846867 28.5223854,20.1269531 27.3586426,20.1269531 C26.3303171,20.1269531 25.4628128,19.9597998 24.7561035,19.6254883 L24.7561035,18.2988281 C25.1496602,18.4934906 25.5664854,18.6437169 26.0065918,18.7495117 C26.4466982,18.8553065 26.869871,18.9082031 27.276123,18.9082031 C27.9955277,18.9082031 28.5329572,18.7749037 28.8884277,18.5083008 C29.2438983,18.2416979 29.4216309,17.8291044 29.4216309,17.2705078 C29.4216309,16.7753881 29.2248555,16.4114595 28.8312988,16.1787109 C28.4377422,15.9459624 27.8199098,15.8295898 26.9777832,15.8295898 L26.1716309,15.8295898 L26.1716309,14.6171875 L26.9904785,14.6171875 C28.4716057,14.6171875 29.2121582,14.1051483 29.2121582,13.0810547 C29.2121582,12.6832662 29.0830905,12.3764659 28.8249512,12.1606445 C28.5668119,11.9448231 28.1859563,11.8369141 27.682373,11.8369141 C27.3311343,11.8369141 26.992596,11.8866369 26.666748,11.986084 C26.3409001,12.0855311 25.9558128,12.2791327 25.5114746,12.5668945 L24.7814941,11.5258789 C25.6320843,10.8995737 26.6201929,10.5864258 27.7458496,10.5864258 C28.6810756,10.5864258 29.4110488,10.7874329 29.935791,11.1894531 C30.4605332,11.5914734 30.7229004,12.1458298 30.7229004,12.8525391 L30.7229004,12.8525391 Z" id="123" fill="#777777" sketch:type="MSShapeGroup"></path>
            </g>
        </g>
    </g>
</svg>