<?xml version="1.0" encoding="UTF-8" standalone="no"?>
<svg width="53px" height="53px" viewBox="0 0 53 53" version="1.1" xmlns="http://www.w3.org/2000/svg" xmlns:xlink="http://www.w3.org/1999/xlink" xmlns:sketch="http://www.bohemiancoding.com/sketch/ns">
    <!-- Generator: Sketch 3.4.2 (15855) - http://www.bohemiancoding.com/sketch -->
    <title>vis-heatmap</title>
    <desc>Created with Sketch.</desc>
    <defs></defs>
    <g id="pivot" stroke="none" stroke-width="1" fill="none" fill-rule="evenodd" sketch:type="MSPage">
        <g id="vis-heatmap" sketch:type="MSArtboardGroup">
            <g id="Group" sketch:type="MSLayerGroup" transform="translate(10.000000, 10.000000)">
                <rect id="Rectangle-24" fill="#999999" sketch:type="MSShapeGroup" x="0" y="0" width="33" height="33"></rect>
                <rect id="Rectangle-24" fill="#EAEAEA" sketch:type="MSShapeGroup" x="1" y="1" width="7" height="7"></rect>
                <rect id="Rectangle-24" fill="#D6D6D6" sketch:type="MSShapeGroup" x="9" y="1" width="7" height="7"></rect>
                <rect id="Rectangle-24" fill="#FFFFFF" sketch:type="MSShapeGroup" x="17" y="1" width="7" height="7"></rect>
                <rect id="Rectangle-24" fill="#F5F5F5" sketch:type="MSShapeGroup" x="25" y="1" width="7" height="7"></rect>
                <rect id="Rectangle-24" fill="#FFFFFF" sketch:type="MSShapeGroup" x="1" y="9" width="7" height="7"></rect>
                <rect id="Rectangle-24" fill="#EAEAEA" sketch:type="MSShapeGroup" x="9" y="9" width="7" height="7"></rect>
                <rect id="Rectangle-24" fill="#D6D6D6" sketch:type="MSShapeGroup" x="17" y="9" width="7" height="7"></rect>
                <rect id="Rectangle-24" fill="#EAEAEA" sketch:type="MSShapeGroup" x="25" y="9" width="7" height="7"></rect>
                <rect id="Rectangle-24" fill="#EAEAEA" sketch:type="MSShapeGroup" x="1" y="17" width="7" height="7"></rect>
                <rect id="Rectangle-24" fill="#E0E0E0" sketch:type="MSShapeGroup" x="9" y="17" width="7" height="7"></rect>
                <rect id="Rectangle-24" fill="#FFFFFF" sketch:type="MSShapeGroup" x="17" y="17" width="7" height="7"></rect>
                <rect id="Rectangle-24" fill="#E0E0E0" sketch:type="MSShapeGroup" x="25" y="17" width="7" height="7"></rect>
                <rect id="Rectangle-24" fill="#D6D6D6" sketch:type="MSShapeGroup" x="1" y="25" width="7" height="7"></rect>
                <rect id="Rectangle-24" fill="#EAEAEA" sketch:type="MSShapeGroup" x="9" y="25" width="7" height="7"></rect>
                <rect id="Rectangle-24" fill="#EAEAEA" sketch:type="MSShapeGroup" x="17" y="25" width="7" height="7"></rect>
                <rect id="Rectangle-24" fill="#F5F5F5" sketch:type="MSShapeGroup" x="25" y="25" width="7" height="7"></rect>
            </g>
        </g>
    </g>
</svg>