<?xml version="1.0" encoding="UTF-8" standalone="no"?>
<svg width="53px" height="53px" viewBox="0 0 53 53" version="1.1" xmlns="http://www.w3.org/2000/svg" xmlns:xlink="http://www.w3.org/1999/xlink" xmlns:sketch="http://www.bohemiancoding.com/sketch/ns">
    <!-- Generator: Sketch 3.4.2 (15855) - http://www.bohemiancoding.com/sketch -->
    <title>vis-stacked-bars</title>
    <desc>Created with Sketch.</desc>
    <defs></defs>
    <g id="pivot" stroke="none" stroke-width="1" fill="none" fill-rule="evenodd" sketch:type="MSPage">
        <g id="vis-stacked-bars" sketch:type="MSArtboardGroup">
            <g id="Group" sketch:type="MSLayerGroup" transform="translate(11.000000, 10.000000)">
                <rect id="Rectangle-41" fill="#999999" sketch:type="MSShapeGroup" x="0" y="8" width="7" height="9"></rect>
                <rect id="Rectangle-41" fill="#999999" sketch:type="MSShapeGroup" x="8" y="0" width="7" height="10"></rect>
                <rect id="Rectangle-41" fill="#999999" sketch:type="MSShapeGroup" x="16" y="0" width="7" height="14"></rect>
                <rect id="Rectangle-41" fill="#999999" sketch:type="MSShapeGroup" x="24" y="0" width="7" height="7"></rect>
                <rect id="Rectangle-41" fill="#999999" sketch:type="MSShapeGroup" x="0" y="0" width="7" height="9"></rect>
                <rect id="Rectangle-41" fill="#999999" sketch:type="MSShapeGroup" x="0" y="16" width="7" height="17"></rect>
                <rect id="Rectangle-41" fill="#999999" sketch:type="MSShapeGroup" x="8" y="9" width="7" height="12"></rect>
                <rect id="Rectangle-41" fill="#999999" sketch:type="MSShapeGroup" x="8" y="20" width="7" height="13"></rect>
                <rect id="Rectangle-41" fill="#999999" sketch:type="MSShapeGroup" x="16" y="13" width="7" height="10"></rect>
                <rect id="Rectangle-41" fill="#999999" sketch:type="MSShapeGroup" x="16" y="22" width="7" height="11"></rect>
                <rect id="Rectangle-41" fill="#999999" sketch:type="MSShapeGroup" x="24" y="6" width="7" height="11"></rect>
                <rect id="Rectangle-41" fill="#999999" sketch:type="MSShapeGroup" x="24" y="16" width="7" height="17"></rect>
                <rect id="Rectangle-41" fill="#D3CFCF" sketch:type="MSShapeGroup" x="25" y="7" width="5" height="9"></rect>
                <rect id="Rectangle-41" fill="#D3CFCF" sketch:type="MSShapeGroup" x="17" y="14" width="5" height="8"></rect>
                <rect id="Rectangle-41" fill="#D3CFCF" sketch:type="MSShapeGroup" x="9" y="10" width="5" height="10"></rect>
                <rect id="Rectangle-41" fill="#D3CFCF" sketch:type="MSShapeGroup" x="1" y="9" width="5" height="7"></rect>
                <rect id="Rectangle-41" fill="#ECECEC" sketch:type="MSShapeGroup" x="25" y="17" width="5" height="15"></rect>
                <rect id="Rectangle-41" fill="#ECECEC" sketch:type="MSShapeGroup" x="17" y="23" width="5" height="9"></rect>
                <rect id="Rectangle-41" fill="#ECECEC" sketch:type="MSShapeGroup" x="9" y="21" width="5" height="11"></rect>
                <rect id="Rectangle-41" fill="#ECECEC" sketch:type="MSShapeGroup" x="1" y="17" width="5" height="15"></rect>
                <rect id="Rectangle-41" fill="#FFFFFF" sketch:type="MSShapeGroup" x="25" y="1" width="5" height="5"></rect>
                <rect id="Rectangle-41" fill="#FFFFFF" sketch:type="MSShapeGroup" x="17" y="1" width="5" height="12"></rect>
                <rect id="Rectangle-41" fill="#FFFFFF" sketch:type="MSShapeGroup" x="9" y="1" width="5" height="8"></rect>
                <rect id="Rectangle-41" fill="#FFFFFF" sketch:type="MSShapeGroup" x="1" y="1" width="5" height="7"></rect>
            </g>
        </g>
    </g>
</svg>