<?xml version="1.0" encoding="UTF-8" standalone="no"?>
<svg width="53px" height="53px" viewBox="0 0 53 53" version="1.1" xmlns="http://www.w3.org/2000/svg" xmlns:xlink="http://www.w3.org/1999/xlink" xmlns:sketch="http://www.bohemiancoding.com/sketch/ns">
    <!-- Generator: Sketch 3.4.2 (15855) - http://www.bohemiancoding.com/sketch -->
    <title>vis-scatter-plot</title>
    <desc>Created with Sketch.</desc>
    <defs></defs>
    <g id="pivot" stroke="none" stroke-width="1" fill="none" fill-rule="evenodd" sketch:type="MSPage">
        <g id="vis-scatter-plot" sketch:type="MSArtboardGroup">
            <g id="Rectangle-24-+-Group-+-Group" sketch:type="MSLayerGroup" transform="translate(10.000000, 10.000000)">
                <path d="M32,0 L33,0 L33,33 L32,33 L32,0 Z M0,32 L32,32 L32,33 L0,33 L0,32 Z" id="Rectangle-24" fill="#AAAAAA" sketch:type="MSShapeGroup"></path>
                <g id="Group" transform="translate(6.000000, 6.000000)" fill="#999999" sketch:type="MSShapeGroup">
                    <circle id="Oval-1" cx="2" cy="20" r="2"></circle>
                    <circle id="Oval-1" cx="5" cy="11" r="2"></circle>
                    <circle id="Oval-1" cx="21" cy="10" r="2"></circle>
                    <circle id="Oval-1" cx="12" cy="2" r="2"></circle>
                    <circle id="Oval-1" cx="9" cy="16" r="2"></circle>
                    <circle id="Oval-1" cx="12" cy="10" r="2"></circle>
                </g>
                <g id="Group" transform="translate(7.000000, 7.000000)" fill="#ECECEC" sketch:type="MSShapeGroup">
                    <circle id="Oval-1" cx="1" cy="19" r="1"></circle>
                    <circle id="Oval-1" cx="4" cy="10" r="1"></circle>
                    <circle id="Oval-1" cx="20" cy="9" r="1"></circle>
                    <circle id="Oval-1" cx="11" cy="1" r="1"></circle>
                    <circle id="Oval-1" cx="8" cy="15" r="1"></circle>
                    <circle id="Oval-1" cx="11" cy="9" r="1"></circle>
                </g>
            </g>
        </g>
    </g>
</svg>