<?xml version="1.0"?>
<svg xmlns="http://www.w3.org/2000/svg" viewBox="0 0 212.94 186.67">
  <title>warning</title>
  <g transform="scale(0.085) translate(0 20)">
    <g>
      <path style="fill:#fff;" d="M211.79,173.91,113.84,4.25a8.5,8.5,0,0,0-14.73,0l-98,169.66a8.51,8.51,0,0,0,7.37,12.76h195.9A8.51,8.51,0,0,0,211.79,173.91ZM113.34,71.53l-2.12,63.95H100.93L98.82,71.53Zm-7.26,91.26c-5.3,0-8.93-3.6-8.93-8.26s3.78-8.26,8.93-8.26c5.44,0,8.92,3.46,8.92,8.26S111.52,162.79,106.08,162.79Z"/>
    </g>
  </g>
</svg>
