<?xml version="1.0" encoding="UTF-8" standalone="no"?>
<svg width="230px" height="230px" viewBox="0 0 230 230" version="1.1" xmlns="http://www.w3.org/2000/svg" xmlns:xlink="http://www.w3.org/1999/xlink" xmlns:sketch="http://www.bohemiancoding.com/sketch/ns">
    <!-- Generator: Sketch 3.5.1 (25234) - http://www.bohemiancoding.com/sketch -->
    <title>pivot-logo</title>
    <desc>Created with Sketch.</desc>
    <defs></defs>
    <g id="logos" stroke="none" stroke-width="1" fill="none" fill-rule="evenodd" sketch:type="MSPage">
        <g id="pivot-logo" sketch:type="MSArtboardGroup">
            <g id="Group" sketch:type="MSLayerGroup" transform="translate(18.000000, 13.000000)">
                <path d="M97.0784314,99.2653496 L193.174574,151.458498 L97.0784314,203.651646 L0.982288307,151.458498 L97.0784314,99.2653496 L97.0784314,99.2653496 Z" id="Rectangle-20" fill="#BE8BDE" sketch:type="MSShapeGroup"></path>
                <path d="M193.174574,151.458498 L97.0784314,203.651646 L0.982288307,151.458498 L97.0784314,99.2653496 L193.174574,151.458498 Z M97.208278,110.426918 L172.754143,151.458498 L97.208278,192.490078 L21.6624125,151.458498 L97.208278,110.426918 Z" id="Shape" fill="#189AE0" sketch:type="MSShapeGroup"></path>
                <path d="M95.0400077,191.43622 L98.1417149,98.2659971 L8.7956517,53.1091727 L7.39017555,143.750688 L95.0400077,191.43622 Z" id="Path-63" fill="#BBE5FC" sketch:type="MSShapeGroup"></path>
                <path d="M186.125818,144.502032 L100.763941,190.974134 L94.5357284,97.8997206 L186.125819,53.6468179 L186.125818,144.502032 Z" id="Path-71" fill="#BBE5FC" sketch:type="MSShapeGroup"></path>
                <path d="M97.0784314,0.454380229 L193.174574,52.6475287 L97.0784314,104.840677 L0.982288307,52.6475287 L97.0784314,0.454380229 L97.0784314,0.454380229 Z" id="Rectangle-20" fill="#BBE5FC" sketch:type="MSShapeGroup"></path>
                <path d="M0.982288307,52.6475287 L97.0784314,104.840677 L193.174574,52.6475287 L97.0784314,0.454380229 L0.982288307,52.6475287 Z M96.9485848,11.6159488 L21.4027193,52.6475287 L96.9485848,93.6791086 L172.49445,52.6475287 L96.9485848,11.6159488 Z" id="Shape" fill="#189AE0" sketch:type="MSShapeGroup"></path>
                <path d="M44.4721899,33.5048448 L41.8981861,37.9631502 L127.055541,87.1287719 L129.629545,82.6704665 L44.4721899,33.5048448 Z" id="Rectangle-20" fill="#189AE0" sketch:type="MSShapeGroup"></path>
                <path d="M72.2841373,20.2389673 L68.014602,23.7183572 L149.641827,70.8458577 L152.215831,66.3875523 L72.2841373,20.2389673 Z" id="Rectangle-20" fill="#189AE0" sketch:type="MSShapeGroup"></path>
                <rect id="Rectangle-39" fill="#189AE0" sketch:type="MSShapeGroup" x="91.0724224" y="97.4687855" width="12.0120179" height="98.8109637"></rect>
                <rect id="Rectangle-39" fill="#189AE0" sketch:type="MSShapeGroup" x="0.982288307" y="52.5547111" width="12.0120179" height="98.8109637"></rect>
                <rect id="Rectangle-39" fill="#189AE0" sketch:type="MSShapeGroup" x="181.162557" y="52.5547111" width="12.0120179" height="98.8109637"></rect>
                <rect id="Rectangle-42" fill="#189AE0" sketch:type="MSShapeGroup" x="34.0153375" y="70.5203408" width="5.4054079" height="95.816692"></rect>
                <path d="M185.61037,83.0794119 L188.106174,87.5819609 L102.10373,135.253894 L99.6079268,130.751345 L185.61037,83.0794119 Z" id="Rectangle-20" fill="#189AE0" sketch:type="MSShapeGroup"></path>
                <rect id="Rectangle-42" fill="#189AE0" sketch:type="MSShapeGroup" x="61.0423777" y="79.5031557" width="5.4054079" height="95.816692"></rect>
                <path d="M185.61037,113.022128 L188.106174,117.524677 L102.10373,165.19661 L99.6079268,160.694061 L185.61037,113.022128 Z" id="Rectangle-20" fill="#189AE0" sketch:type="MSShapeGroup"></path>
            </g>
        </g>
    </g>
</svg>