<?xml version="1.0" encoding="UTF-8" standalone="no"?>
<svg width="350px" height="221px" viewBox="0 0 350 221" version="1.1" xmlns="http://www.w3.org/2000/svg" xmlns:xlink="http://www.w3.org/1999/xlink" xmlns:sketch="http://www.bohemiancoding.com/sketch/ns">
    <g stroke="none" stroke-width="1" fill="none" fill-rule="evenodd">
        <g fill="#189AE0">
            <path d="M49.7303879,88.7017241 L49.7303879,88.7017241 L49.7303879,147 L49.7303879,148 L48.7303879,148 L37.519181,148 L36.519181,148 L36.519181,147 L36.519181,88.7017241 L36.519181,87.7017241 L37.519181,87.7017241 L48.7303879,87.7017241 L49.7303879,87.7017241 L49.7303879,88.7017241 Z M43.1247845,53.1961207 L43.1247845,53.1961207 C45.5534059,53.1961207 47.6390603,54.0730436 49.3225449,55.8032916 C50.9993927,57.5267185 51.8480603,59.6248136 51.8480603,62.0439655 C51.8480603,64.3867001 50.9943541,66.4261095 49.3129257,68.1075378 C47.6294284,69.7910352 45.5476484,70.6426724 43.1247845,70.6426724 C40.7019205,70.6426724 38.6201406,69.7910352 36.9366432,68.1075378 C35.2552149,66.4261095 34.4015086,64.3867001 34.4015086,62.0439655 C34.4015086,59.6248136 35.2501763,57.5267185 36.9270241,55.8032916 C38.6105086,54.0730436 40.6961631,53.1961207 43.1247845,53.1961207 L43.1247845,53.1961207 Z M78.505819,88.7017241 L78.505819,88.7017241 L78.505819,96.0512931 L77.505819,96.0512931 L77.505819,95.0512931 L77.7549569,95.0512931 L77.7549569,96.0512931 L76.9069586,95.5212942 C78.6509296,92.7309406 80.98448,90.441008 83.8974317,88.6584554 C86.8342073,86.8613241 89.9415909,85.9577586 93.2015086,85.9577586 C100.794732,85.9577586 106.724096,89.6032194 110.883983,96.7963577 L109.152893,96.7959465 C111.068302,93.4875126 113.727694,90.8499186 117.117303,88.8943748 C120.507156,86.9386908 124.125705,85.9577586 127.95625,85.9577586 C141.447189,85.9577586 148.26444,94.8421752 148.26444,112.12069 L148.26444,147 L148.26444,148 L147.26444,148 L136.053233,148 L135.053233,148 L135.053233,147 L135.053233,113.989224 C135.053233,111.785147 134.951517,109.85254 134.749164,108.193253 C134.551637,106.57353 134.114683,104.865437 133.43608,103.069133 C132.803839,101.395556 131.817147,100.134783 130.463999,99.2570647 C129.101018,98.3729694 127.358456,97.9232759 125.215733,97.9232759 C123.060311,97.9232759 121.262776,98.3584686 119.806692,99.2171849 C118.318449,100.094866 117.189121,101.148907 116.405299,102.380625 C115.59733,103.650292 114.952603,105.271878 114.478637,107.246735 C113.992199,109.273563 113.689468,111.08995 113.569182,112.693755 C113.446613,114.328006 113.385129,116.213515 113.385129,118.349138 L113.385129,147 L113.385129,148 L112.385129,148 L101.173922,148 L100.173922,148 L100.173922,147 L100.173922,116.106897 C100.173922,114.133034 100.132899,112.492079 100.051301,111.186516 C99.9711228,109.903667 99.7480868,108.281587 99.381352,106.325668 C99.0281457,104.441901 98.5260858,102.974342 97.8900401,101.926737 C97.2671792,100.900848 96.3162825,99.9685966 95.0250677,99.1331046 C93.7829869,98.3294053 92.2692317,97.9232759 90.4609914,97.9232759 C87.8296605,97.9232759 85.6811527,98.5126895 83.9901501,99.6776024 C82.3052347,100.838322 81.1072623,102.485534 80.3853212,104.651357 C79.6168698,106.956712 79.1131141,109.112786 78.8724027,111.118714 C78.6284086,113.151999 78.505819,115.562928 78.505819,118.349138 L78.505819,147 L78.505819,148 L77.505819,148 L66.2946121,148 L65.2946121,148 L65.2946121,147 L65.2946121,88.7017241 L65.2946121,87.7017241 L66.2946121,87.7017241 L77.505819,87.7017241 L78.505819,87.7017241 L78.505819,88.7017241 Z M190.365302,139.027586 C196.261596,139.027586 200.891362,136.99298 204.254741,132.923707 C207.61812,128.854434 209.299784,123.830202 209.299784,117.850862 C209.299784,111.954568 207.597359,106.992621 204.192457,102.964871 C200.787555,98.9371207 196.178549,96.9232759 190.365302,96.9232759 C184.801193,96.9232759 180.337517,98.9786432 176.974138,103.08944 C173.610759,107.200236 171.929095,112.120661 171.929095,117.850862 C171.929095,123.66411 173.589998,128.646818 176.911853,132.799138 C180.233709,136.951458 184.718147,139.027586 190.365302,139.027586 L190.365302,139.027586 L190.365302,139.027586 Z M173.55194,88.7017241 L173.55194,88.7017241 L173.55194,98.4181034 L172.55194,98.4181034 L172.55194,97.4181034 L172.801078,97.4181034 L172.801078,98.4181034 L171.967636,97.8654956 C177.21451,89.9521776 184.291579,85.9577586 193.105819,85.9577586 C201.536667,85.9577586 208.419753,89.0962728 213.677469,95.3451979 C218.897258,101.549045 221.510991,108.94034 221.510991,117.477155 C221.510991,126.503975 218.944674,134.181541 213.811515,140.469661 C208.633538,146.812683 201.537088,149.993103 192.607543,149.993103 C188.445593,149.993103 184.556639,148.950255 180.957996,146.869112 C177.380761,144.80035 174.384261,141.997868 171.975277,138.470427 L172.801078,137.906466 L172.801078,138.906466 L172.55194,138.906466 L172.55194,137.906466 L173.55194,137.906466 L173.55194,180.384483 L173.55194,181.384483 L172.55194,181.384483 L161.340733,181.384483 L160.340733,181.384483 L160.340733,180.384483 L160.340733,88.7017241 L160.340733,87.7017241 L161.340733,87.7017241 L172.55194,87.7017241 L173.55194,87.7017241 L173.55194,88.7017241 Z M244.182543,38.8741379 L244.182543,38.8741379 L244.182543,147 L244.182543,148 L243.182543,148 L231.971336,148 L230.971336,148 L230.971336,147 L230.971336,38.8741379 L230.971336,37.8741379 L231.971336,37.8741379 L243.182543,37.8741379 L244.182543,37.8741379 L244.182543,38.8741379 Z M275.566813,137.517441 L275.566813,137.517441 L248.909055,89.1846822 L248.091135,87.7017241 L249.784698,87.7017241 L262.86444,87.7017241 L263.465153,87.7017241 L263.747286,88.2320619 L283.429182,125.229045 L281.650106,125.255118 L299.961744,88.2581353 L300.237139,87.7017241 L300.857974,87.7017241 L313.43944,87.7017241 L315.079183,87.7017241 L314.328489,89.1595361 L267.116851,180.842295 L266.837653,181.384483 L266.227802,181.384483 L253.521767,181.384483 L251.861855,181.384483 L252.637732,179.917062 L275.558422,136.567062 L275.566813,137.517441 Z"></path>
        </g>
    </g>
</svg>