<?xml version="1.0" encoding="UTF-8" standalone="no"?>
<svg width="17px" height="8px" viewBox="0 0 17 8" version="1.1" xmlns="http://www.w3.org/2000/svg" xmlns:xlink="http://www.w3.org/1999/xlink" xmlns:sketch="http://www.bohemiancoding.com/sketch/ns">
    <g stroke="none" stroke-width="1" fill="none" fill-rule="evenodd">
        <path d="M0,0 L5,0 L5,8 L0,8 L0,0 Z M1,1 L4,1 L4,3 L1,3 L1,1 Z M1,4 L4,4 L4,8 L1,8 L1,4 Z M6,0 L11,0 L11,8 L6,8 L6,0 Z M7,1 L10,1 L10,3 L7,3 L7,1 Z M7,4 L10,4 L10,7 L7,7 L7,4 Z M12,0 L17,0 L17,8 L12,8 L12,0 Z M13,1 L17,1 L17,7 L13,7 L13,1 Z" fill="#AAAAAA"></path>
    </g>
</svg>