<?xml version="1.0" encoding="UTF-8" standalone="no"?>
<svg width="15px" height="15px" viewBox="0 0 15 15" version="1.1" xmlns="http://www.w3.org/2000/svg" xmlns:xlink="http://www.w3.org/1999/xlink" xmlns:sketch="http://www.bohemiancoding.com/sketch/ns">
    <g stroke="none" stroke-width="1" fill="none" fill-rule="evenodd">
        <path d="M6,9 L6,6 L6,6 L9,6 L9,9 L6,9 Z M6,10 L6,13.8260682 L6,13.8260682 C6.48151935,13.9398113 6.98373076,14 7.5,14 C8.01626924,14 8.51848065,13.9398113 9,13.8260682 L9,13.8260682 L9,10 L6,10 Z M13.8260682,9 C13.9398113,8.51848065 14,8.01626924 14,7.5 C14,6.98373076 13.9398113,6.48151935 13.8260682,6 L13.8260682,6 L10,6 L10,9 L13.8260682,9 Z M13.5018367,10 C12.8432122,11.5793598 11.5793598,12.8432122 10,13.5018367 L10,13.5018367 L10,10 L13.5018367,10 Z M1.17393184,9 C1.06018869,8.51848065 1,8.01626924 1,7.5 C1,6.98373076 1.06018869,6.48151935 1.17393184,6 L1.17393184,6 L5,6 L5,9 L1.17393184,9 Z M1.49816335,10 C2.15678777,11.5793598 3.42064024,12.8432122 5,13.5018367 L5,13.5018367 L5,10 L1.49816335,10 Z M6,5 L6,1.17393184 C6.48151935,1.06018869 6.98373076,1 7.5,1 C8.01626924,1 8.51848065,1.06018869 9,1.17393184 L9,5 L6,5 L6,5 Z M13.5018367,5 C12.8432122,3.42064024 11.5793598,2.15678777 10,1.49816335 L10,5 L13.5018367,5 L13.5018367,5 Z M1.49816335,5 C2.15678777,3.42064024 3.42064024,2.15678777 5,1.49816335 L5,5 L1.49816335,5 L1.49816335,5 Z M7.5,15 C11.6421356,15 15,11.6421356 15,7.5 C15,3.35786438 11.6421356,0 7.5,0 C3.35786438,0 0,3.35786438 0,7.5 C0,11.6421356 3.35786438,15 7.5,15 Z" fill="#AAAAAA"></path>
    </g>
</svg>