<?xml version="1.0" encoding="UTF-8" standalone="no"?>
<svg width="53px" height="53px" viewBox="0 0 53 53" version="1.1" xmlns="http://www.w3.org/2000/svg" xmlns:xlink="http://www.w3.org/1999/xlink" xmlns:sketch="http://www.bohemiancoding.com/sketch/ns">
    <g stroke="none" stroke-width="1" fill="none" fill-rule="evenodd">
        <g>
            <g transform="translate(8.000000, 8.000000)">
                <g>
                    <g>
                        <path d="M18.5,36.5 C28.4411255,36.5 36.5,28.4411255 36.5,18.5 C36.5,8.5588745 28.4411255,0.5 18.5,0.5 C8.5588745,0.5 0.5,8.5588745 0.5,18.5 C0.5,28.4411255 8.5588745,36.5 18.5,36.5 L18.5,36.5 Z" fill="#EEEEEE"></path>
                        <path d="M18.5,36.5 C28.4411255,36.5 36.5,28.4411255 36.5,18.5 C36.5,8.5588745 28.4411255,0.5 18.5,0.5 C8.5588745,0.5 0.5,8.5588745 0.5,18.5 C0.5,28.4411255 8.5588745,36.5 18.5,36.5 L18.5,36.5 Z M18.5,35.5 C9.11115925,35.5 1.5,27.8888407 1.5,18.5 C1.5,9.11115925 9.11115925,1.5 18.5,1.5 C27.8888407,1.5 35.5,9.11115925 35.5,18.5 C35.5,27.8888407 27.8888407,35.5 18.5,35.5 L18.5,35.5 Z" fill="#A0A0A0"></path>
                        <path d="M31.6707152,13.6587974 L33.3941016,13.6587974 L34.8709677,13.5690187 C34.7326759,13.098061 34.5770977,12.6354724 34.4027298,12.1820138 L33.5023299,12.1972306 L33.0506268,11.6950785 L32.2524427,12.1302769 L31.5842828,11.4105256 L31.5572257,10.7303378 L30.1622824,10.6032781 L29.3062261,10.1749272 L28.7583201,10.6770793 L28.2028981,10.5614321 L27.8586718,9.01236903 L28.4839912,8.11838616 L29.1296035,8.0088257 L29.927036,8.0963219 L29.8082855,7.25635842 L29.1002916,7.54547628 L28.4396477,6.85996261 L28.3622343,6.43009 L28.6974416,6.06032346 L29.4948742,5.74381549 L29.7000571,5.37252728 C26.6523765,2.65481936 22.6576977,1 18.2864745,1 C14.4932207,1 10.9840664,2.24625016 8.13029492,4.35148472 L10.1798695,3.8843802 L13.1337522,3.8988361 L15.4426239,3.76497796 L14.2376815,5.51023869 L13.4838409,5.74229381 L11.9430899,6.6552976 L12.1159547,7.29820443 L12.5466134,7.58275727 L13.2759777,7.68455305 L13.4079307,7.70296944 L13.4079307,8.69433938 L13.8062712,8.62966828 L14.1730451,7.85513673 L15.0892283,7.56145385 L16.7442203,7.06310595 L17.0749181,7.06310595 L18.024171,7.64438503 L18.6833118,8.05143255 L18.6555031,8.66314508 L16.9621802,9.03975914 L16.4037519,8.69433938 L15.8550942,8.83737664 L14.9592039,10.1574279 L13.9287797,10.8741359 L12.8652858,11.9940872 L12.7923819,12.4924351 L11.7266332,13.2015347 L11.1982683,13.7394461 L10.5293569,13.8406374 L8.49030454,13.8413982 L7.43432643,14.3823529 L6.79397529,15.9169601 L7.0908517,16.5750837 L7.92285723,16.6777966 L9.9634128,17.1723403 L10.0641253,18.7457502 L11.4432853,18.9831312 L12.3196344,17.9575236 L13.3831284,18.1766445 L13.7566666,18.7023825 L14.7765686,18.6415156 L15.9978956,19.6146255 L17.0891982,19.6298422 L17.4920482,20.3435068 L17.5491687,21.2154254 L18.7562156,21.6802965 L20.2789285,21.6962741 L21.399543,22.6556889 L21.2702703,23.2681623 L20.5307098,24.2192079 L20.3150047,26.3259641 L19.6468448,26.8600713 L18.6562547,26.8303987 L18.3263085,27.4116778 L18.5713255,28.5042389 L17.4927998,29.8996131 L17.1485735,30.5402374 L16.1211556,31.0393461 L15.891922,31.5711708 L15.4101554,32.2977697 L16.1504675,33.0403461 L15.9708385,33.7532499 L16.7269338,34.3976784 L16.6262213,34.7324464 L15.5973003,34.7126647 L14.5736404,33.8087909 L13.7762078,32.3898309 L13.8874425,31.0203252 L13.2839191,30.2054693 L13.5281845,28.8245511 L13.169678,28.7233599 L13.169678,25.7271858 C13.169678,25.7271858 12.1640562,24.9556976 12.106184,24.9556976 C12.0483119,24.9556976 11.5740613,24.8248337 11.5740613,24.8248337 L11.4733488,24.2587714 L10.166341,22.6001478 L10.2956137,22.0044129 L10.3384541,21.0297813 L11.2433635,20.389157 L11.1140907,19.2981175 L9.79280281,19.1976871 L8.75862069,18.0046954 L8.02582449,17.7992696 L7.0059225,17.1883179 L5.49673812,17.0544107 L4.88945675,16.1140168 L4.34681177,15.6575149 L3.78688032,15.5700187 L3.0976761,14.3808313 L3.0976761,12.9968697 L2.37916003,12.6476458 L2.37916003,11.6517108 C1.49228873,13.7561845 1,16.0706491 1,18.5 C1,28.1496891 8.75486276,36 18.287226,36 C23.6911283,36 28.5223221,33.4755445 31.694766,29.5313682 L31.1243123,29.5313682 L31.1243123,28.3680492 L30.4644199,27.4687405 L30.4644199,26.0695622 L29.9608574,25.5613234 L29.9165138,24.9792835 L30.556865,23.7429242 L29.344557,21.5753011 L29.4866067,20.1046041 L28.3953041,19.9904787 L27.9932057,19.5834312 L27.2596579,19.5834312 L26.8868713,19.9318943 L25.5498001,20.0483022 L24.8305324,20.0483022 L23.1800499,18.1439285 L23.1935785,16.6602974 L23.1800499,15.9915221 L23.0214653,15.3957871 L24.9312449,14.000413 L24.9312449,13.0113256 L25.8662177,12.4855876 L27.0138893,12.5236294 L27.6159096,12.1964697 L29.5557526,12.0435416 L29.5557526,13.0470849 L31.0897394,13.4404374 L31.6707152,13.6587974 Z" fill="#FFFFFF"></path>
                        <path d="M31.6707152,14.1587974 L33.3941016,14.1587974 L34.9013067,14.0680974 L35.5274505,14.0300342 L35.3507125,13.4281467 C35.2071621,12.9392803 35.0469345,12.464211 34.8694161,12.0025594 L34.7439124,11.6761765 L34.394281,11.6820852 L33.4938811,11.6973019 L33.874063,11.8628438 L33.4223599,11.3606917 L33.158143,11.0669654 L32.8112748,11.2560903 L32.0130906,11.6912888 L32.6188853,11.7901008 L31.9507254,11.0703495 L32.0838877,11.3906519 L32.0568306,10.7104641 L32.0393965,10.2721869 L31.6025809,10.2323992 L30.2076376,10.1053395 L30.3860241,10.156132 L29.5299678,9.72778105 L29.2221506,9.57375634 L28.9683986,9.80631822 L28.4204925,10.3084703 L28.8602416,10.1875775 L28.3048197,10.0719303 L28.6909923,10.4529699 L28.346766,8.90390678 L28.2683886,9.29895605 L28.893708,8.40497318 L28.5676453,8.61133849 L29.2132575,8.50177803 L29.0750696,8.50584286 L29.8725021,8.59333906 L30.5121974,8.66352793 L30.4221129,8.02632997 L30.3033624,7.1863665 L30.2135083,6.55079755 L29.6192581,6.79346681 L28.9112642,7.08258467 L29.4603153,7.19851385 L28.7996714,6.51300018 L28.4396477,6.85996261 L28.9317321,6.77134589 L28.8543187,6.34147328 L28.3622343,6.43009 L28.7326748,6.76590821 L29.067882,6.39614168 L28.6974416,6.06032346 L28.8818978,6.52505554 L29.6793304,6.20854756 L29.8458445,6.14245667 L29.9324963,5.98565615 L30.1376792,5.61436794 L30.3307442,5.26500775 L30.0328309,4.99934954 C26.8025927,2.11884954 22.6641785,0.5 18.2864745,0.5 C14.4826483,0.5 10.8540066,1.72086534 7.83347106,3.9491222 L5.9055948,5.37132149 L8.24139769,4.83898464 L10.2909723,4.37188012 L10.1774226,4.38437421 L13.1313053,4.39883011 L15.4715631,4.26413978 L15.0311624,3.48090153 L13.82622,5.22616225 L14.0905783,5.03236775 L13.3367377,5.26442287 L13.2289467,5.3121439 L11.6881957,6.22514769 L11.3616941,6.41862294 L11.4602395,6.78512637 L11.6331043,7.4280332 L11.6822868,7.61094945 L11.840319,7.71536741 L12.2709776,7.99992026 L12.4774994,8.07795749 L13.2068637,8.17975327 L13.3388167,8.19816965 L13.4079307,7.70296944 L12.9079307,7.70296944 L12.9079307,8.69433938 L12.9079307,9.28206166 L13.4880573,9.18787736 L13.8863978,9.12320626 L14.1457245,9.08110422 L14.2581649,8.84365928 L14.6249388,8.06912774 L14.3256707,8.33127267 L15.2418538,8.03758979 L16.8883852,7.54187152 L16.7442203,7.06310595 L16.7442203,7.56310595 L17.0749181,7.56310595 L17.0749181,7.06310595 L16.8138072,7.48951084 L17.7630602,8.07078991 L18.4205975,8.47685141 L18.1838276,8.02872581 L18.156019,8.64043835 L18.54695,8.1750711 L16.8536271,8.55168516 L17.2252067,8.61453324 L16.6667784,8.26911348 L16.4847409,8.15651288 L16.277616,8.21051118 L15.7289583,8.35354844 L15.546983,8.40099013 L15.4413769,8.55659562 L14.5454866,9.87664692 L14.6737009,9.74695501 L13.6432767,10.463663 L13.5662057,10.5298394 L12.5027117,11.6497907 L12.3935076,11.7647921 L12.3705516,11.9217121 L12.2976478,12.4200599 L12.5154104,12.0761578 L11.4496617,12.7852574 L11.3699287,12.8511608 L10.8415638,13.3890722 L11.1234805,13.245071 L10.4545691,13.3462622 L8.49011798,13.3413982 L8.36959993,13.3414432 L8.26233726,13.3963915 L7.20635915,13.9373463 L7.04339786,14.0208278 L6.97288747,14.1898066 L6.33253633,15.7244138 L6.24895582,15.9247152 L6.33820153,16.1225575 L6.63507794,16.7806811 L6.7506483,17.0368805 L7.02959065,17.0713166 L7.86159618,17.1740295 L9.84564347,17.6582728 L9.46443395,17.2042795 L9.56514646,18.7776894 L9.5903576,19.1715576 L9.97931245,19.2385045 L11.3584725,19.4758854 L11.6386987,19.524118 L11.8234156,19.3079404 L12.6997646,18.2823328 L12.2187345,18.447237 L13.2822285,18.6663579 L12.9755336,18.4662416 L13.3490718,18.9919796 L13.5096689,19.2180127 L13.7864532,19.2014945 L14.8063552,19.1406276 L14.4649932,19.0325664 L15.6863202,20.0056763 L15.8200075,20.1121936 L15.9909244,20.1145769 L17.0822271,20.1297936 L16.6537795,19.8756277 L17.0566295,20.5892923 L16.9931177,20.3761924 L17.0502382,21.248111 L17.071137,21.5671204 L17.3694697,21.6820176 L18.5765165,22.1468887 L18.7509695,22.180269 L20.2736824,22.1962466 L19.9537502,22.0760885 L21.0743647,23.0355033 L20.9103215,22.5524305 L20.7810487,23.1649039 L20.8755657,22.9612286 L20.1360052,23.9122742 L20.0479248,24.0255422 L20.0333102,24.1682804 L19.817605,26.2750367 L20.0028071,25.9354098 L19.3346473,26.469517 L19.6618154,26.3602955 L18.6712252,26.3306228 L18.3701241,26.3216035 L18.2214217,26.5835784 L17.8914755,27.1648574 L17.7961857,27.3327333 L17.8384264,27.5210899 L18.0834433,28.613651 L18.1757217,28.1984651 L17.097196,29.5938392 L16.70813,30.3035741 L16.9300942,30.0904966 L15.9026763,30.5896053 L15.7355425,30.6707972 L15.6619932,30.8414322 L15.4327596,31.3732569 L14.9934347,32.0214658 L14.7678513,32.36169 L15.0560626,32.6507828 L15.7963746,33.3933592 L15.6656216,32.9181804 L15.4859926,33.6310842 L15.4100975,33.9322933 L15.646504,34.1337852 L16.4025993,34.7782137 L16.7269338,34.3976784 L16.2481319,34.2536343 L16.1474194,34.5884024 L16.6262213,34.7324464 L16.6358324,34.2325388 L15.6069114,34.212757 L15.9282438,34.3378628 L14.9045838,33.4339891 L15.0095243,33.5638312 L14.2120917,32.1448712 L14.2745666,32.4303088 L14.3858013,31.0608032 L14.4010035,30.8736361 L14.2892384,30.7227348 L13.685715,29.907879 L13.7762758,30.2925604 L14.0205412,28.9116422 L14.0993293,28.4662255 L13.6640066,28.3433522 L13.3055002,28.242161 L13.169678,28.7233599 L13.669678,28.7233599 L13.669678,25.7271858 L13.669678,25.4805834 L13.4740208,25.33048 C13.3466654,25.2327761 13.1547059,25.0869086 12.9585334,24.9406193 C12.9468756,24.9319282 12.9468756,24.9319282 12.935205,24.9232375 C12.791566,24.8163061 12.6697682,24.7273407 12.5755536,24.6610197 C12.5187998,24.6210687 12.4718681,24.5891883 12.4335703,24.5648752 C12.2762455,24.4649986 12.2587185,24.4556976 12.106184,24.4556976 C12.1486251,24.4556976 12.0269093,24.4277093 11.9679175,24.4124889 C11.9560968,24.4094348 11.9560968,24.4094348 11.9442694,24.4063627 C11.8527651,24.3825651 11.7641659,24.3586045 11.7070599,24.3428468 L11.5740613,24.8248337 L12.0663306,24.7372503 L11.9656181,24.1711879 L11.9436593,24.0477667 L11.86607,23.9493041 L10.5590622,22.2906805 L10.6549691,22.7061787 L10.7842419,22.1104437 L10.8379718,21.0517379 L10.6273568,21.4378687 L11.5322661,20.7972443 L11.7748641,20.6254987 L11.7398903,20.3303256 L11.6106175,19.2392861 L11.5622102,18.8307365 L11.1519862,18.7995556 L9.83069825,18.6991252 L10.1706072,18.8701755 L9.13642509,17.6771839 L9.03810854,17.5637698 L8.89358364,17.5232549 L8.16078744,17.317829 L8.28276631,17.3703397 L7.26286432,16.759388 L7.16441983,16.7004168 L7.05011299,16.6902745 L5.54092861,16.5563673 L5.91676928,16.7831657 L5.30948792,15.8427718 L5.21133387,15.7314006 L4.66868889,15.2748987 L4.56189297,15.1850563 L4.42400616,15.1635098 L3.86407471,15.0760136 L4.21947869,15.3193024 L3.53027447,14.130115 L3.5976761,14.3808313 L3.5976761,12.9968697 L3.5976761,12.6839578 L3.31624476,12.5471723 L2.59772869,12.1979484 L2.87916003,12.6476458 L2.87916003,11.6517108 L2.87916003,9.17773972 L1.91840321,11.4575378 C0.986778242,13.6682083 0.5,16.0515112 0.5,18.5 C0.5,28.4244716 8.47734197,36.5 18.287226,36.5 C23.7003935,36.5 28.7234531,34.0232484 32.0843749,29.8447448 L32.7386031,29.0313682 L31.694766,29.0313682 L31.1243123,29.0313682 L31.6243123,29.5313682 L31.6243123,28.3680492 L31.6243123,28.2042841 L31.5274294,28.072251 L30.8675371,27.1729423 L30.9644199,27.4687405 L30.9644199,26.0695622 L30.9644199,25.8638078 L30.8196035,25.7176466 L30.316041,25.2094078 L30.4594126,25.5233403 L30.415069,24.9413004 L30.3604973,25.2092372 L31.0008485,23.9728779 L31.1246619,23.7338247 L30.9932519,23.4988618 L29.7809439,21.3312387 L29.842241,21.6233707 L29.9842907,20.1526738 L30.0319816,19.6589113 L29.5386118,19.607316 L28.4473091,19.4931906 L28.7510133,19.6390943 L28.3489149,19.2320468 L28.2021062,19.0834312 L27.9932057,19.0834312 L27.2596579,19.0834312 L27.0623574,19.0834312 L26.9182218,19.2181622 L26.5454353,19.5666253 L26.8435044,19.4337785 L25.5064332,19.5501865 L24.8305324,19.5483022 L25.2083745,19.7208341 L23.557892,17.8164604 L23.6800291,18.1484876 L23.6935577,16.6648565 L23.6799476,15.9814098 L23.6632235,15.8629013 L23.5046389,15.2671664 L23.3164413,15.7995063 L25.226221,14.4041322 L25.4312449,14.2543321 L25.4312449,14.000413 L25.4312449,13.0113256 L25.1763103,13.44715 L26.1112831,12.921412 L25.8496533,12.9853131 L26.9973249,13.023355 L27.1331898,13.0278585 L27.2526317,12.9629494 L27.854652,12.6357897 L27.6552053,12.6949232 L29.5950484,12.541995 L29.0557526,12.0435416 L29.0557526,13.0470849 L29.0557526,13.4350492 L29.4315583,13.5314151 L30.965545,13.9247676 L31.4948045,14.126831 L31.6707152,14.1587974 L31.6707152,14.1587974 Z M31.6707152,13.1587974 L31.8466259,13.1907639 L31.26565,12.9724038 L29.679947,12.5627547 L30.0557526,13.0470849 L30.0557526,12.0435416 L30.0557526,11.5025726 L29.5164569,11.5450881 L27.5766138,11.6980163 L27.3771671,11.7571497 L26.7751469,12.0843094 L27.0304537,12.0239039 L25.8827821,11.985862 L25.7430321,11.9812298 L25.6211523,12.0497631 L24.6861795,12.5755011 L24.4312449,12.7188516 L24.4312449,13.0113256 L24.4312449,14.000413 L24.6362689,13.5966939 L22.7264893,14.992068 L22.450301,15.1938641 L22.5382917,15.5244079 L22.6968763,16.1201429 L22.6801522,16.0016345 L22.6936807,16.6704097 L22.6800707,18.1393694 L22.6783463,18.3284816 L22.8022078,18.4713967 L24.4526904,20.3757704 L24.6022203,20.5483022 L24.8305324,20.5483022 L25.5498001,20.5483022 L26.9302382,20.43001 L27.1022043,20.4150383 L27.2283073,20.2971633 L27.6010939,19.9487001 L27.2596579,20.0834312 L27.9932057,20.0834312 L27.6374964,19.9348155 L28.0395949,20.341863 L28.1653405,20.4691564 L28.343299,20.4877668 L29.4346017,20.6018923 L28.9889228,20.0565345 L28.8468731,21.5272314 L28.8318392,21.6828828 L28.9081701,21.8193635 L30.1204781,23.9869866 L30.1128815,23.5129706 L29.4725304,24.7493299 L29.4071611,24.8755417 L29.4179587,25.0172667 L29.4623022,25.5993066 L29.4762692,25.7826327 L29.6056738,25.913239 L30.1092363,26.4214778 L29.9644199,26.0695622 L29.9644199,27.4687405 L29.9644199,27.6325056 L30.0613028,27.7645387 L30.7211952,28.6638474 L30.6243123,28.3680492 L30.6243123,29.5313682 L30.6243123,30.0313682 L31.1243123,30.0313682 L31.694766,30.0313682 L31.305157,29.2179916 C28.1314934,33.1636844 23.3932499,35.5 18.287226,35.5 C9.03238355,35.5 1.5,27.8749067 1.5,18.5 C1.5,16.185605 1.95982375,13.9342734 2.83991684,11.8458838 L1.87916003,11.6517108 L1.87916003,12.6476458 L1.87916003,12.9605577 L2.16059136,13.0973431 L2.87910743,13.4465671 L2.5976761,12.9968697 L2.5976761,14.3808313 L2.5976761,14.5152494 L2.66507772,14.6315475 L3.35428194,15.820735 L3.47393147,16.0271842 L3.70968593,16.0640238 L4.26961739,16.15152 L4.02493466,16.040131 L4.56757964,16.4966329 L4.46942559,16.3852617 L5.07670696,17.3256556 L5.20922539,17.5308645 L5.45254762,17.552454 L6.961732,17.6863613 L6.74898067,17.6172478 L7.76888267,18.2281995 L7.89086154,18.2807101 L8.62365774,18.486136 L8.38081629,18.332207 L9.41499841,19.5251986 L9.54976139,19.6806559 L9.75490738,19.6962489 L11.0761953,19.7966793 L10.6175639,19.3569489 L10.7468367,20.4479884 L10.9544609,19.9810696 L10.0495515,20.621694 L9.84968973,20.7631847 L9.83893646,21.0078248 L9.79609607,21.9824563 L9.67771285,22.4941169 L9.62772627,22.7244729 L9.77361972,22.9096151 L11.0806275,24.5682387 L10.9810794,24.3463548 L11.0817919,24.9124171 L11.1370373,25.2229284 L11.4410627,25.3068206 C11.5025193,25.3237788 11.5953811,25.3488922 11.6925719,25.3741686 C11.7052973,25.377474 11.7052973,25.377474 11.7180907,25.3807795 C11.9470505,25.439853 12.0159558,25.4556976 12.106184,25.4556976 C11.9672632,25.4556976 11.9899209,25.4677213 11.8976087,25.4091176 C11.9199859,25.4233236 11.9550712,25.4471568 11.9999333,25.4787368 C12.08548,25.5389562 12.2009228,25.6232796 12.3380599,25.7253708 C12.3493963,25.7338126 12.3493963,25.7338126 12.3607327,25.7422641 C12.5525194,25.8852828 12.7412852,26.0287234 12.8653352,26.1238915 L12.669678,25.7271858 L12.669678,28.7233599 L12.669678,29.1017667 L13.0338559,29.2045587 L13.3923623,29.30575 L13.5281845,28.8245511 L13.0358278,28.73746 L12.7915624,30.1183782 L12.7540941,30.3301994 L12.8821231,30.5030597 L13.4856466,31.3179156 L13.3890837,30.9798472 L13.277849,32.3493529 L13.2654818,32.5016157 L13.3403239,32.6347906 L14.1377565,34.0537506 L14.2426969,34.1835928 L15.2663568,35.0874665 L15.4040437,35.2090416 L15.5876892,35.2125723 L16.6166102,35.232354 L16.9957713,35.2396437 L17.1050233,34.8764905 L17.2057358,34.5417224 L17.2998201,34.2289865 L17.0512683,34.017143 L16.295173,33.3727145 L16.4556844,33.8754156 L16.6353134,33.1625118 L16.7045086,32.8878928 L16.5045603,32.687333 L15.7642483,31.9447566 L15.8268761,32.5740736 L16.3086427,31.8474747 L16.580318,31.23726 L16.339635,31.4890869 L17.3670528,30.9899782 L17.5124866,30.919328 L17.589017,30.7769007 L17.9332433,30.1362763 L18.9669293,28.8100128 L19.1106248,28.6241025 L19.0592076,28.3948268 L18.8141907,27.3022657 L18.7611415,27.6584981 L19.0910877,27.077219 L18.6412842,27.3301745 L19.6318743,27.3598471 L19.8155261,27.3653483 L19.9590424,27.2506256 L20.6272022,26.7165184 L20.7910402,26.5855512 L20.8124043,26.3768915 L21.0281094,24.2701353 L20.9254144,24.5261415 L21.6649749,23.5750959 L21.7356989,23.4841476 L21.7594918,23.3714207 L21.8887646,22.7589473 L21.9500137,22.4687586 L21.7247214,22.2758744 L20.6041069,21.3164596 L20.4659884,21.1982093 L20.2841747,21.1963016 L18.7614617,21.180324 L18.9359147,21.2137044 L17.7288678,20.7488333 L18.0480993,21.1827398 L17.9909787,20.3108212 L17.927467,20.0977213 L17.5246169,19.3840566 L17.383406,19.1338959 L17.0961693,19.1298908 L16.0048667,19.1146741 L16.309471,19.2235746 L15.088144,18.2504647 L14.9381827,18.130981 L14.746782,18.1424036 L13.72688,18.2032705 L14.1642614,18.4127854 L13.7907232,17.8870474 L13.6767533,17.7266399 L13.4840283,17.6869311 L12.4205343,17.4678102 L12.1313258,17.408222 L11.9395042,17.6327144 L11.0631551,18.658322 L11.5280982,18.4903769 L10.1489382,18.2529959 L10.5631042,18.713811 L10.4623916,17.1404012 L10.438881,16.7730988 L10.0811821,16.6864078 L8.04062656,16.1918641 L7.15211275,16.0788508 L7.54662546,16.3694863 L7.24974905,15.7113628 L7.25541425,16.1095065 L7.89576539,14.5748993 L7.66229371,14.8273596 L8.71827182,14.2864049 L8.49049111,14.3413982 L10.5295435,14.3406373 L11.2730562,14.2338213 L11.4380432,14.2088624 L11.5549729,14.08982 L12.0833377,13.5519086 L12.0036047,13.617812 L13.0693535,12.9087124 L13.2548628,12.7852831 L13.287116,12.5648103 L13.3600199,12.0664624 L13.2278598,12.3383837 L14.2913538,11.2184324 L14.2142827,11.2846088 L15.2447069,10.5679009 L15.3729212,10.438209 L16.2688116,9.11815765 L15.9812302,9.32120483 L16.5298879,9.17816757 L16.1407254,9.11956528 L16.6991537,9.46498504 L16.8721585,9.5719984 L17.0707333,9.52783313 L18.7640563,9.15121907 L19.1376084,9.06813686 L19.1549872,8.68585181 L19.1827959,8.07413928 L19.1961461,7.78047345 L18.9460261,7.62601368 L18.2868853,7.21896616 L17.3360289,6.63670107 L17.215845,6.56310595 L17.0749181,6.56310595 L16.7442203,6.56310595 L16.6000554,6.58434038 L14.9450633,7.08268828 L14.0204196,7.37900079 L13.813947,7.44518565 L13.7211515,7.64114573 L13.3543776,8.41567727 L13.8062712,8.62966828 L13.7261447,8.13613029 L13.3278042,8.2008014 L13.4079307,8.69433938 L13.9079307,8.69433938 L13.9079307,7.70296944 L13.9079307,7.26790703 L13.4770447,7.20776922 L13.3450917,7.18935283 L12.6157274,7.08755705 L12.8222491,7.16559429 L12.3915904,6.88104144 L12.598805,7.16837565 L12.4259403,6.52546882 L12.1979841,7.08544751 L13.7387351,6.17244372 L13.6309442,6.22016475 L14.3847848,5.98810962 L14.5505825,5.93707203 L14.649143,5.79431512 L15.8540855,4.04905439 L16.4357496,3.20656135 L15.4136847,3.26581614 L13.104813,3.39967427 L10.1823164,3.38438619 L10.0687668,3.39688028 L8.01919215,3.8639848 L8.42711879,4.75384723 C11.2775819,2.65105327 14.6987289,1.5 18.2864745,1.5 C22.4155286,1.5 26.3179729,3.02654368 29.3672834,5.74570503 L29.7000571,5.37252728 L29.262435,5.13068662 L29.0572521,5.50197482 L29.4948742,5.74381549 L29.310418,5.27908341 L28.5129854,5.59559139 L28.4050186,5.63844435 L28.3270012,5.72450525 L27.9917939,6.09427178 L27.826543,6.2765597 L27.8701499,6.51870671 L27.9475632,6.94857933 L27.9744304,7.09777154 L28.0796239,7.20692504 L28.7402679,7.89243871 L28.9754956,8.13652148 L29.289319,8.0083679 L29.9973129,7.71925003 L29.3132086,7.32635034 L29.4319592,8.16631382 L29.9815699,7.59930474 L29.1841374,7.51180855 L29.0459494,7.51587337 L28.4003372,7.62543383 L28.1941469,7.66042433 L28.0742744,7.83179913 L27.448955,8.725782 L27.3228527,8.90606308 L27.3705776,9.12083128 L27.7148039,10.6698944 L27.7848502,10.9851117 L28.1009765,11.0509339 L28.6563985,11.166581 L28.9072495,11.218812 L29.0961476,11.0456882 L29.6440537,10.5435361 L29.0824845,10.6220733 L29.9385407,11.0504242 L30.1169272,11.1012168 L31.5118705,11.2282765 L31.0576209,10.7502115 L31.084678,11.4303993 L31.0920281,11.6151752 L31.2178402,11.7507018 L31.886,12.4704531 L32.1504845,12.7553596 L32.4917947,12.5692651 L33.2899788,12.1340666 L32.6788937,12.0294652 L33.1305968,12.5316173 L33.2829706,12.7010091 L33.5107787,12.6971592 L34.4111785,12.6819424 L34.4027298,12.1820138 L33.9360434,12.3614682 C34.103681,12.797424 34.2552291,13.2467586 34.3912229,13.7098907 L34.8709677,13.5690187 L34.8406287,13.06994 L33.3637626,13.1597187 L31.6707152,13.1587974 L31.6707152,13.1587974 Z" fill="#A0A0A0"></path>
                    </g>
                </g>
            </g>
        </g>
    </g>
</svg>